<?xml version="1.0" encoding="utf-8"?>
<svg xmlns="http://www.w3.org/2000/svg" xmlns:xlink="http://www.w3.org/1999/xlink" width="600" height="300" viewBox="0 0 2400 1200">
<defs>
  <clipPath id="clip890">
    <rect x="0" y="0" width="2400" height="1200"/>
  </clipPath>
</defs>
<path clip-path="url(#clip890)" d="
M0 1200 L2400 1200 L2400 0 L0 0  Z
  " fill="#ffffff" fill-rule="evenodd" fill-opacity="1"/>
<defs>
  <clipPath id="clip891">
    <rect x="480" y="0" width="1681" height="1200"/>
  </clipPath>
</defs>
<path clip-path="url(#clip890)" d="
M250.671 1047.7 L2289.76 1047.7 L2289.76 108.352 L250.671 108.352  Z
  " fill="#ffffff" fill-rule="evenodd" fill-opacity="1"/>
<defs>
  <clipPath id="clip892">
    <rect x="250" y="108" width="2040" height="940"/>
  </clipPath>
</defs>
<polyline clip-path="url(#clip892)" style="stroke:#000000; stroke-linecap:round; stroke-linejoin:round; stroke-width:2; stroke-opacity:0.1; fill:none" points="
  308.381,1047.7 308.381,108.352 
  "/>
<polyline clip-path="url(#clip892)" style="stroke:#000000; stroke-linecap:round; stroke-linejoin:round; stroke-width:2; stroke-opacity:0.1; fill:none" points="
  950.192,1047.7 950.192,108.352 
  "/>
<polyline clip-path="url(#clip892)" style="stroke:#000000; stroke-linecap:round; stroke-linejoin:round; stroke-width:2; stroke-opacity:0.1; fill:none" points="
  1592,1047.7 1592,108.352 
  "/>
<polyline clip-path="url(#clip892)" style="stroke:#000000; stroke-linecap:round; stroke-linejoin:round; stroke-width:2; stroke-opacity:0.1; fill:none" points="
  2233.81,1047.7 2233.81,108.352 
  "/>
<polyline clip-path="url(#clip890)" style="stroke:#000000; stroke-linecap:round; stroke-linejoin:round; stroke-width:4; stroke-opacity:1; fill:none" points="
  250.671,1047.7 2289.76,1047.7 
  "/>
<polyline clip-path="url(#clip890)" style="stroke:#000000; stroke-linecap:round; stroke-linejoin:round; stroke-width:4; stroke-opacity:1; fill:none" points="
  308.381,1047.7 308.381,1028.8 
  "/>
<polyline clip-path="url(#clip890)" style="stroke:#000000; stroke-linecap:round; stroke-linejoin:round; stroke-width:4; stroke-opacity:1; fill:none" points="
  950.192,1047.7 950.192,1028.8 
  "/>
<polyline clip-path="url(#clip890)" style="stroke:#000000; stroke-linecap:round; stroke-linejoin:round; stroke-width:4; stroke-opacity:1; fill:none" points="
  1592,1047.7 1592,1028.8 
  "/>
<polyline clip-path="url(#clip890)" style="stroke:#000000; stroke-linecap:round; stroke-linejoin:round; stroke-width:4; stroke-opacity:1; fill:none" points="
  2233.81,1047.7 2233.81,1028.8 
  "/>
<path clip-path="url(#clip890)" d="M180.176 1106.16 L196.495 1106.16 L196.495 1110.1 L174.551 1110.1 L174.551 1106.16 Q177.213 1103.41 181.796 1098.78 Q186.403 1094.13 187.583 1092.79 Q189.829 1090.26 190.708 1088.53 Q191.611 1086.77 191.611 1085.08 Q191.611 1082.32 189.667 1080.59 Q187.745 1078.85 184.644 1078.85 Q182.445 1078.85 179.991 1079.61 Q177.56 1080.38 174.783 1081.93 L174.783 1077.21 Q177.607 1076.07 180.06 1075.49 Q182.514 1074.91 184.551 1074.91 Q189.921 1074.91 193.116 1077.6 Q196.31 1080.29 196.31 1084.78 Q196.31 1086.91 195.5 1088.83 Q194.713 1090.72 192.607 1093.32 Q192.028 1093.99 188.926 1097.21 Q185.824 1100.4 180.176 1106.16 Z" fill="#000000" fill-rule="evenodd" fill-opacity="1" /><path clip-path="url(#clip890)" d="M216.31 1078.62 Q212.699 1078.62 210.87 1082.18 Q209.065 1085.72 209.065 1092.85 Q209.065 1099.96 210.87 1103.53 Q212.699 1107.07 216.31 1107.07 Q219.944 1107.07 221.75 1103.53 Q223.579 1099.96 223.579 1092.85 Q223.579 1085.72 221.75 1082.18 Q219.944 1078.62 216.31 1078.62 M216.31 1074.91 Q222.12 1074.91 225.176 1079.52 Q228.255 1084.1 228.255 1092.85 Q228.255 1101.58 225.176 1106.19 Q222.12 1110.77 216.31 1110.77 Q210.5 1110.77 207.421 1106.19 Q204.366 1101.58 204.366 1092.85 Q204.366 1084.1 207.421 1079.52 Q210.5 1074.91 216.31 1074.91 Z" fill="#000000" fill-rule="evenodd" fill-opacity="1" /><path clip-path="url(#clip890)" d="M237.282 1106.16 L244.921 1106.16 L244.921 1079.8 L236.611 1081.47 L236.611 1077.21 L244.875 1075.54 L249.551 1075.54 L249.551 1106.16 L257.19 1106.16 L257.19 1110.1 L237.282 1110.1 L237.282 1106.16 Z" fill="#000000" fill-rule="evenodd" fill-opacity="1" /><path clip-path="url(#clip890)" d="M280.801 1091.47 Q284.157 1092.18 286.032 1094.45 Q287.93 1096.72 287.93 1100.05 Q287.93 1105.17 284.412 1107.97 Q280.893 1110.77 274.412 1110.77 Q272.236 1110.77 269.921 1110.33 Q267.629 1109.91 265.176 1109.06 L265.176 1104.54 Q267.12 1105.68 269.435 1106.26 Q271.75 1106.84 274.273 1106.84 Q278.671 1106.84 280.963 1105.1 Q283.277 1103.36 283.277 1100.05 Q283.277 1097 281.125 1095.29 Q278.995 1093.55 275.176 1093.55 L271.148 1093.55 L271.148 1089.71 L275.361 1089.71 Q278.81 1089.71 280.638 1088.34 Q282.467 1086.95 282.467 1084.36 Q282.467 1081.7 280.569 1080.29 Q278.694 1078.85 275.176 1078.85 Q273.254 1078.85 271.055 1079.27 Q268.856 1079.68 266.217 1080.56 L266.217 1076.4 Q268.879 1075.66 271.194 1075.29 Q273.532 1074.91 275.592 1074.91 Q280.916 1074.91 284.018 1077.35 Q287.12 1079.75 287.12 1083.87 Q287.12 1086.74 285.476 1088.73 Q283.833 1090.7 280.801 1091.47 Z" fill="#000000" fill-rule="evenodd" fill-opacity="1" /><path clip-path="url(#clip890)" d="M294.041 1095.22 L306.518 1095.22 L306.518 1099.01 L294.041 1099.01 L294.041 1095.22 Z" fill="#000000" fill-rule="evenodd" fill-opacity="1" /><path clip-path="url(#clip890)" d="M323.902 1078.62 Q320.291 1078.62 318.462 1082.18 Q316.657 1085.72 316.657 1092.85 Q316.657 1099.96 318.462 1103.53 Q320.291 1107.07 323.902 1107.07 Q327.536 1107.07 329.342 1103.53 Q331.171 1099.96 331.171 1092.85 Q331.171 1085.72 329.342 1082.18 Q327.536 1078.62 323.902 1078.62 M323.902 1074.91 Q329.712 1074.91 332.768 1079.52 Q335.847 1084.1 335.847 1092.85 Q335.847 1101.58 332.768 1106.19 Q329.712 1110.77 323.902 1110.77 Q318.092 1110.77 315.013 1106.19 Q311.958 1101.58 311.958 1092.85 Q311.958 1084.1 315.013 1079.52 Q318.092 1074.91 323.902 1074.91 Z" fill="#000000" fill-rule="evenodd" fill-opacity="1" /><path clip-path="url(#clip890)" d="M344.874 1106.16 L352.513 1106.16 L352.513 1079.8 L344.203 1081.47 L344.203 1077.21 L352.467 1075.54 L357.143 1075.54 L357.143 1106.16 L364.782 1106.16 L364.782 1110.1 L344.874 1110.1 L344.874 1106.16 Z" fill="#000000" fill-rule="evenodd" fill-opacity="1" /><path clip-path="url(#clip890)" d="M371.471 1095.22 L383.948 1095.22 L383.948 1099.01 L371.471 1099.01 L371.471 1095.22 Z" fill="#000000" fill-rule="evenodd" fill-opacity="1" /><path clip-path="url(#clip890)" d="M401.332 1078.62 Q397.721 1078.62 395.892 1082.18 Q394.087 1085.72 394.087 1092.85 Q394.087 1099.96 395.892 1103.53 Q397.721 1107.07 401.332 1107.07 Q404.967 1107.07 406.772 1103.53 Q408.601 1099.96 408.601 1092.85 Q408.601 1085.72 406.772 1082.18 Q404.967 1078.62 401.332 1078.62 M401.332 1074.91 Q407.142 1074.91 410.198 1079.52 Q413.277 1084.1 413.277 1092.85 Q413.277 1101.58 410.198 1106.19 Q407.142 1110.77 401.332 1110.77 Q395.522 1110.77 392.443 1106.19 Q389.388 1101.58 389.388 1092.85 Q389.388 1084.1 392.443 1079.52 Q395.522 1074.91 401.332 1074.91 Z" fill="#000000" fill-rule="evenodd" fill-opacity="1" /><path clip-path="url(#clip890)" d="M422.304 1106.16 L429.943 1106.16 L429.943 1079.8 L421.633 1081.47 L421.633 1077.21 L429.897 1075.54 L434.573 1075.54 L434.573 1106.16 L442.212 1106.16 L442.212 1110.1 L422.304 1110.1 L422.304 1106.16 Z" fill="#000000" fill-rule="evenodd" fill-opacity="1" /><path clip-path="url(#clip890)" d="M821.986 1106.16 L838.306 1106.16 L838.306 1110.1 L816.361 1110.1 L816.361 1106.16 Q819.023 1103.41 823.607 1098.78 Q828.213 1094.13 829.394 1092.79 Q831.639 1090.26 832.519 1088.53 Q833.421 1086.77 833.421 1085.08 Q833.421 1082.32 831.477 1080.59 Q829.556 1078.85 826.454 1078.85 Q824.255 1078.85 821.801 1079.61 Q819.371 1080.38 816.593 1081.93 L816.593 1077.21 Q819.417 1076.07 821.871 1075.49 Q824.324 1074.91 826.361 1074.91 Q831.732 1074.91 834.926 1077.6 Q838.12 1080.29 838.12 1084.78 Q838.12 1086.91 837.31 1088.83 Q836.523 1090.72 834.417 1093.32 Q833.838 1093.99 830.736 1097.21 Q827.634 1100.4 821.986 1106.16 Z" fill="#000000" fill-rule="evenodd" fill-opacity="1" /><path clip-path="url(#clip890)" d="M858.12 1078.62 Q854.509 1078.62 852.681 1082.18 Q850.875 1085.72 850.875 1092.85 Q850.875 1099.96 852.681 1103.53 Q854.509 1107.07 858.12 1107.07 Q861.755 1107.07 863.56 1103.53 Q865.389 1099.96 865.389 1092.85 Q865.389 1085.72 863.56 1082.18 Q861.755 1078.62 858.12 1078.62 M858.12 1074.91 Q863.93 1074.91 866.986 1079.52 Q870.065 1084.1 870.065 1092.85 Q870.065 1101.58 866.986 1106.19 Q863.93 1110.77 858.12 1110.77 Q852.31 1110.77 849.231 1106.19 Q846.176 1101.58 846.176 1092.85 Q846.176 1084.1 849.231 1079.52 Q852.31 1074.91 858.12 1074.91 Z" fill="#000000" fill-rule="evenodd" fill-opacity="1" /><path clip-path="url(#clip890)" d="M879.092 1106.16 L886.731 1106.16 L886.731 1079.8 L878.421 1081.47 L878.421 1077.21 L886.685 1075.54 L891.361 1075.54 L891.361 1106.16 L899 1106.16 L899 1110.1 L879.092 1110.1 L879.092 1106.16 Z" fill="#000000" fill-rule="evenodd" fill-opacity="1" /><path clip-path="url(#clip890)" d="M921.291 1079.61 L909.486 1098.06 L921.291 1098.06 L921.291 1079.61 M920.064 1075.54 L925.944 1075.54 L925.944 1098.06 L930.875 1098.06 L930.875 1101.95 L925.944 1101.95 L925.944 1110.1 L921.291 1110.1 L921.291 1101.95 L905.69 1101.95 L905.69 1097.44 L920.064 1075.54 Z" fill="#000000" fill-rule="evenodd" fill-opacity="1" /><path clip-path="url(#clip890)" d="M935.851 1095.22 L948.328 1095.22 L948.328 1099.01 L935.851 1099.01 L935.851 1095.22 Z" fill="#000000" fill-rule="evenodd" fill-opacity="1" /><path clip-path="url(#clip890)" d="M965.712 1078.62 Q962.101 1078.62 960.273 1082.18 Q958.467 1085.72 958.467 1092.85 Q958.467 1099.96 960.273 1103.53 Q962.101 1107.07 965.712 1107.07 Q969.347 1107.07 971.152 1103.53 Q972.981 1099.96 972.981 1092.85 Q972.981 1085.72 971.152 1082.18 Q969.347 1078.62 965.712 1078.62 M965.712 1074.91 Q971.522 1074.91 974.578 1079.52 Q977.657 1084.1 977.657 1092.85 Q977.657 1101.58 974.578 1106.19 Q971.522 1110.77 965.712 1110.77 Q959.902 1110.77 956.824 1106.19 Q953.768 1101.58 953.768 1092.85 Q953.768 1084.1 956.824 1079.52 Q959.902 1074.91 965.712 1074.91 Z" fill="#000000" fill-rule="evenodd" fill-opacity="1" /><path clip-path="url(#clip890)" d="M986.684 1106.16 L994.323 1106.16 L994.323 1079.8 L986.013 1081.47 L986.013 1077.21 L994.277 1075.54 L998.953 1075.54 L998.953 1106.16 L1006.59 1106.16 L1006.59 1110.1 L986.684 1110.1 L986.684 1106.16 Z" fill="#000000" fill-rule="evenodd" fill-opacity="1" /><path clip-path="url(#clip890)" d="M1013.28 1095.22 L1025.76 1095.22 L1025.76 1099.01 L1013.28 1099.01 L1013.28 1095.22 Z" fill="#000000" fill-rule="evenodd" fill-opacity="1" /><path clip-path="url(#clip890)" d="M1043.14 1078.62 Q1039.53 1078.62 1037.7 1082.18 Q1035.9 1085.72 1035.9 1092.85 Q1035.9 1099.96 1037.7 1103.53 Q1039.53 1107.07 1043.14 1107.07 Q1046.78 1107.07 1048.58 1103.53 Q1050.41 1099.96 1050.41 1092.85 Q1050.41 1085.72 1048.58 1082.18 Q1046.78 1078.62 1043.14 1078.62 M1043.14 1074.91 Q1048.95 1074.91 1052.01 1079.52 Q1055.09 1084.1 1055.09 1092.85 Q1055.09 1101.58 1052.01 1106.19 Q1048.95 1110.77 1043.14 1110.77 Q1037.33 1110.77 1034.25 1106.19 Q1031.2 1101.58 1031.2 1092.85 Q1031.2 1084.1 1034.25 1079.52 Q1037.33 1074.91 1043.14 1074.91 Z" fill="#000000" fill-rule="evenodd" fill-opacity="1" /><path clip-path="url(#clip890)" d="M1064.11 1106.16 L1071.75 1106.16 L1071.75 1079.8 L1063.44 1081.47 L1063.44 1077.21 L1071.71 1075.54 L1076.38 1075.54 L1076.38 1106.16 L1084.02 1106.16 L1084.02 1110.1 L1064.11 1110.1 L1064.11 1106.16 Z" fill="#000000" fill-rule="evenodd" fill-opacity="1" /><path clip-path="url(#clip890)" d="M1463.8 1106.16 L1480.12 1106.16 L1480.12 1110.1 L1458.17 1110.1 L1458.17 1106.16 Q1460.83 1103.41 1465.42 1098.78 Q1470.02 1094.13 1471.2 1092.79 Q1473.45 1090.26 1474.33 1088.53 Q1475.23 1086.77 1475.23 1085.08 Q1475.23 1082.32 1473.29 1080.59 Q1471.37 1078.85 1468.26 1078.85 Q1466.06 1078.85 1463.61 1079.61 Q1461.18 1080.38 1458.4 1081.93 L1458.4 1077.21 Q1461.23 1076.07 1463.68 1075.49 Q1466.13 1074.91 1468.17 1074.91 Q1473.54 1074.91 1476.74 1077.6 Q1479.93 1080.29 1479.93 1084.78 Q1479.93 1086.91 1479.12 1088.83 Q1478.33 1090.72 1476.23 1093.32 Q1475.65 1093.99 1472.55 1097.21 Q1469.44 1100.4 1463.8 1106.16 Z" fill="#000000" fill-rule="evenodd" fill-opacity="1" /><path clip-path="url(#clip890)" d="M1499.93 1078.62 Q1496.32 1078.62 1494.49 1082.18 Q1492.69 1085.72 1492.69 1092.85 Q1492.69 1099.96 1494.49 1103.53 Q1496.32 1107.07 1499.93 1107.07 Q1503.56 1107.07 1505.37 1103.53 Q1507.2 1099.96 1507.2 1092.85 Q1507.2 1085.72 1505.37 1082.18 Q1503.56 1078.62 1499.93 1078.62 M1499.93 1074.91 Q1505.74 1074.91 1508.8 1079.52 Q1511.87 1084.1 1511.87 1092.85 Q1511.87 1101.58 1508.8 1106.19 Q1505.74 1110.77 1499.93 1110.77 Q1494.12 1110.77 1491.04 1106.19 Q1487.99 1101.58 1487.99 1092.85 Q1487.99 1084.1 1491.04 1079.52 Q1494.12 1074.91 1499.93 1074.91 Z" fill="#000000" fill-rule="evenodd" fill-opacity="1" /><path clip-path="url(#clip890)" d="M1520.9 1106.16 L1528.54 1106.16 L1528.54 1079.8 L1520.23 1081.47 L1520.23 1077.21 L1528.5 1075.54 L1533.17 1075.54 L1533.17 1106.16 L1540.81 1106.16 L1540.81 1110.1 L1520.9 1110.1 L1520.9 1106.16 Z" fill="#000000" fill-rule="evenodd" fill-opacity="1" /><path clip-path="url(#clip890)" d="M1550.3 1075.54 L1568.66 1075.54 L1568.66 1079.48 L1554.58 1079.48 L1554.58 1087.95 Q1555.6 1087.6 1556.62 1087.44 Q1557.64 1087.25 1558.66 1087.25 Q1564.44 1087.25 1567.82 1090.42 Q1571.2 1093.6 1571.2 1099.01 Q1571.2 1104.59 1567.73 1107.69 Q1564.26 1110.77 1557.94 1110.77 Q1555.76 1110.77 1553.5 1110.4 Q1551.25 1110.03 1548.84 1109.29 L1548.84 1104.59 Q1550.93 1105.72 1553.15 1106.28 Q1555.37 1106.84 1557.85 1106.84 Q1561.85 1106.84 1564.19 1104.73 Q1566.53 1102.62 1566.53 1099.01 Q1566.53 1095.4 1564.19 1093.29 Q1561.85 1091.19 1557.85 1091.19 Q1555.97 1091.19 1554.1 1091.6 Q1552.25 1092.02 1550.3 1092.9 L1550.3 1075.54 Z" fill="#000000" fill-rule="evenodd" fill-opacity="1" /><path clip-path="url(#clip890)" d="M1577.66 1095.22 L1590.14 1095.22 L1590.14 1099.01 L1577.66 1099.01 L1577.66 1095.22 Z" fill="#000000" fill-rule="evenodd" fill-opacity="1" /><path clip-path="url(#clip890)" d="M1607.52 1078.62 Q1603.91 1078.62 1602.08 1082.18 Q1600.28 1085.72 1600.28 1092.85 Q1600.28 1099.96 1602.08 1103.53 Q1603.91 1107.07 1607.52 1107.07 Q1611.16 1107.07 1612.96 1103.53 Q1614.79 1099.96 1614.79 1092.85 Q1614.79 1085.72 1612.96 1082.18 Q1611.16 1078.62 1607.52 1078.62 M1607.52 1074.91 Q1613.33 1074.91 1616.39 1079.52 Q1619.47 1084.1 1619.47 1092.85 Q1619.47 1101.58 1616.39 1106.19 Q1613.33 1110.77 1607.52 1110.77 Q1601.71 1110.77 1598.63 1106.19 Q1595.58 1101.58 1595.58 1092.85 Q1595.58 1084.1 1598.63 1079.52 Q1601.71 1074.91 1607.52 1074.91 Z" fill="#000000" fill-rule="evenodd" fill-opacity="1" /><path clip-path="url(#clip890)" d="M1628.49 1106.16 L1636.13 1106.16 L1636.13 1079.8 L1627.82 1081.47 L1627.82 1077.21 L1636.09 1075.54 L1640.76 1075.54 L1640.76 1106.16 L1648.4 1106.16 L1648.4 1110.1 L1628.49 1110.1 L1628.49 1106.16 Z" fill="#000000" fill-rule="evenodd" fill-opacity="1" /><path clip-path="url(#clip890)" d="M1655.09 1095.22 L1667.57 1095.22 L1667.57 1099.01 L1655.09 1099.01 L1655.09 1095.22 Z" fill="#000000" fill-rule="evenodd" fill-opacity="1" /><path clip-path="url(#clip890)" d="M1684.95 1078.62 Q1681.34 1078.62 1679.51 1082.18 Q1677.71 1085.72 1677.71 1092.85 Q1677.71 1099.96 1679.51 1103.53 Q1681.34 1107.07 1684.95 1107.07 Q1688.59 1107.07 1690.39 1103.53 Q1692.22 1099.96 1692.22 1092.85 Q1692.22 1085.72 1690.39 1082.18 Q1688.59 1078.62 1684.95 1078.62 M1684.95 1074.91 Q1690.76 1074.91 1693.82 1079.52 Q1696.9 1084.1 1696.9 1092.85 Q1696.9 1101.58 1693.82 1106.19 Q1690.76 1110.77 1684.95 1110.77 Q1679.14 1110.77 1676.06 1106.19 Q1673.01 1101.58 1673.01 1092.85 Q1673.01 1084.1 1676.06 1079.52 Q1679.14 1074.91 1684.95 1074.91 Z" fill="#000000" fill-rule="evenodd" fill-opacity="1" /><path clip-path="url(#clip890)" d="M1705.92 1106.16 L1713.56 1106.16 L1713.56 1079.8 L1705.25 1081.47 L1705.25 1077.21 L1713.52 1075.54 L1718.19 1075.54 L1718.19 1106.16 L1725.83 1106.16 L1725.83 1110.1 L1705.92 1110.1 L1705.92 1106.16 Z" fill="#000000" fill-rule="evenodd" fill-opacity="1" /><path clip-path="url(#clip890)" d="M2105.61 1106.16 L2121.93 1106.16 L2121.93 1110.1 L2099.98 1110.1 L2099.98 1106.16 Q2102.64 1103.41 2107.23 1098.78 Q2111.83 1094.13 2113.01 1092.79 Q2115.26 1090.26 2116.14 1088.53 Q2117.04 1086.77 2117.04 1085.08 Q2117.04 1082.32 2115.1 1080.59 Q2113.18 1078.85 2110.07 1078.85 Q2107.88 1078.85 2105.42 1079.61 Q2102.99 1080.38 2100.21 1081.93 L2100.21 1077.21 Q2103.04 1076.07 2105.49 1075.49 Q2107.94 1074.91 2109.98 1074.91 Q2115.35 1074.91 2118.55 1077.6 Q2121.74 1080.29 2121.74 1084.78 Q2121.74 1086.91 2120.93 1088.83 Q2120.14 1090.72 2118.04 1093.32 Q2117.46 1093.99 2114.36 1097.21 Q2111.25 1100.4 2105.61 1106.16 Z" fill="#000000" fill-rule="evenodd" fill-opacity="1" /><path clip-path="url(#clip890)" d="M2141.74 1078.62 Q2138.13 1078.62 2136.3 1082.18 Q2134.5 1085.72 2134.5 1092.85 Q2134.5 1099.96 2136.3 1103.53 Q2138.13 1107.07 2141.74 1107.07 Q2145.37 1107.07 2147.18 1103.53 Q2149.01 1099.96 2149.01 1092.85 Q2149.01 1085.72 2147.18 1082.18 Q2145.37 1078.62 2141.74 1078.62 M2141.74 1074.91 Q2147.55 1074.91 2150.61 1079.52 Q2153.69 1084.1 2153.69 1092.85 Q2153.69 1101.58 2150.61 1106.19 Q2147.55 1110.77 2141.74 1110.77 Q2135.93 1110.77 2132.85 1106.19 Q2129.8 1101.58 2129.8 1092.85 Q2129.8 1084.1 2132.85 1079.52 Q2135.93 1074.91 2141.74 1074.91 Z" fill="#000000" fill-rule="evenodd" fill-opacity="1" /><path clip-path="url(#clip890)" d="M2162.71 1106.16 L2170.35 1106.16 L2170.35 1079.8 L2162.04 1081.47 L2162.04 1077.21 L2170.31 1075.54 L2174.98 1075.54 L2174.98 1106.16 L2182.62 1106.16 L2182.62 1110.1 L2162.71 1110.1 L2162.71 1106.16 Z" fill="#000000" fill-rule="evenodd" fill-opacity="1" /><path clip-path="url(#clip890)" d="M2202.64 1090.96 Q2199.5 1090.96 2197.64 1093.11 Q2195.81 1095.26 2195.81 1099.01 Q2195.81 1102.74 2197.64 1104.91 Q2199.5 1107.07 2202.64 1107.07 Q2205.79 1107.07 2207.62 1104.91 Q2209.47 1102.74 2209.47 1099.01 Q2209.47 1095.26 2207.62 1093.11 Q2205.79 1090.96 2202.64 1090.96 M2211.93 1076.3 L2211.93 1080.56 Q2210.17 1079.73 2208.36 1079.29 Q2206.58 1078.85 2204.82 1078.85 Q2200.19 1078.85 2197.74 1081.97 Q2195.31 1085.1 2194.96 1091.42 Q2196.32 1089.41 2198.38 1088.34 Q2200.44 1087.25 2202.92 1087.25 Q2208.13 1087.25 2211.14 1090.42 Q2214.17 1093.57 2214.17 1099.01 Q2214.17 1104.34 2211.02 1107.55 Q2207.87 1110.77 2202.64 1110.77 Q2196.65 1110.77 2193.48 1106.19 Q2190.31 1101.58 2190.31 1092.85 Q2190.31 1084.66 2194.19 1079.8 Q2198.08 1074.91 2204.63 1074.91 Q2206.39 1074.91 2208.18 1075.26 Q2209.98 1075.61 2211.93 1076.3 Z" fill="#000000" fill-rule="evenodd" fill-opacity="1" /><path clip-path="url(#clip890)" d="M2219.47 1095.22 L2231.95 1095.22 L2231.95 1099.01 L2219.47 1099.01 L2219.47 1095.22 Z" fill="#000000" fill-rule="evenodd" fill-opacity="1" /><path clip-path="url(#clip890)" d="M2249.33 1078.62 Q2245.72 1078.62 2243.89 1082.18 Q2242.09 1085.72 2242.09 1092.85 Q2242.09 1099.96 2243.89 1103.53 Q2245.72 1107.07 2249.33 1107.07 Q2252.97 1107.07 2254.77 1103.53 Q2256.6 1099.96 2256.6 1092.85 Q2256.6 1085.72 2254.77 1082.18 Q2252.97 1078.62 2249.33 1078.62 M2249.33 1074.91 Q2255.14 1074.91 2258.2 1079.52 Q2261.28 1084.1 2261.28 1092.85 Q2261.28 1101.58 2258.2 1106.19 Q2255.14 1110.77 2249.33 1110.77 Q2243.52 1110.77 2240.44 1106.19 Q2237.39 1101.58 2237.39 1092.85 Q2237.39 1084.1 2240.44 1079.52 Q2243.52 1074.91 2249.33 1074.91 Z" fill="#000000" fill-rule="evenodd" fill-opacity="1" /><path clip-path="url(#clip890)" d="M2270.3 1106.16 L2277.94 1106.16 L2277.94 1079.8 L2269.63 1081.47 L2269.63 1077.21 L2277.9 1075.54 L2282.57 1075.54 L2282.57 1106.16 L2290.21 1106.16 L2290.21 1110.1 L2270.3 1110.1 L2270.3 1106.16 Z" fill="#000000" fill-rule="evenodd" fill-opacity="1" /><path clip-path="url(#clip890)" d="M2296.9 1095.22 L2309.38 1095.22 L2309.38 1099.01 L2296.9 1099.01 L2296.9 1095.22 Z" fill="#000000" fill-rule="evenodd" fill-opacity="1" /><path clip-path="url(#clip890)" d="M2326.76 1078.62 Q2323.15 1078.62 2321.32 1082.18 Q2319.52 1085.72 2319.52 1092.85 Q2319.52 1099.96 2321.32 1103.53 Q2323.15 1107.07 2326.76 1107.07 Q2330.4 1107.07 2332.2 1103.53 Q2334.03 1099.96 2334.03 1092.85 Q2334.03 1085.72 2332.2 1082.18 Q2330.4 1078.62 2326.76 1078.62 M2326.76 1074.91 Q2332.57 1074.91 2335.63 1079.52 Q2338.71 1084.1 2338.71 1092.85 Q2338.71 1101.58 2335.63 1106.19 Q2332.57 1110.77 2326.76 1110.77 Q2320.95 1110.77 2317.87 1106.19 Q2314.82 1101.58 2314.82 1092.85 Q2314.82 1084.1 2317.87 1079.52 Q2320.95 1074.91 2326.76 1074.91 Z" fill="#000000" fill-rule="evenodd" fill-opacity="1" /><path clip-path="url(#clip890)" d="M2347.73 1106.16 L2355.37 1106.16 L2355.37 1079.8 L2347.06 1081.47 L2347.06 1077.21 L2355.33 1075.54 L2360 1075.54 L2360 1106.16 L2367.64 1106.16 L2367.64 1110.1 L2347.73 1110.1 L2347.73 1106.16 Z" fill="#000000" fill-rule="evenodd" fill-opacity="1" /><path clip-path="url(#clip890)" d="M1192.09 1145.04 L1232.29 1145.04 L1232.29 1150.45 L1215.42 1150.45 L1215.42 1192.56 L1208.96 1192.56 L1208.96 1150.45 L1192.09 1150.45 L1192.09 1145.04 Z" fill="#000000" fill-rule="evenodd" fill-opacity="1" /><path clip-path="url(#clip890)" d="M1236.24 1156.92 L1242.1 1156.92 L1242.1 1192.56 L1236.24 1192.56 L1236.24 1156.92 M1236.24 1143.04 L1242.1 1143.04 L1242.1 1150.45 L1236.24 1150.45 L1236.24 1143.04 Z" fill="#000000" fill-rule="evenodd" fill-opacity="1" /><path clip-path="url(#clip890)" d="M1282.11 1163.76 Q1284.3 1159.81 1287.36 1157.93 Q1290.41 1156.06 1294.55 1156.06 Q1300.12 1156.06 1303.14 1159.97 Q1306.17 1163.85 1306.17 1171.05 L1306.17 1192.56 L1300.28 1192.56 L1300.28 1171.24 Q1300.28 1166.11 1298.47 1163.63 Q1296.65 1161.15 1292.93 1161.15 Q1288.38 1161.15 1285.73 1164.17 Q1283.09 1167.2 1283.09 1172.42 L1283.09 1192.56 L1277.2 1192.56 L1277.2 1171.24 Q1277.2 1166.08 1275.39 1163.63 Q1273.58 1161.15 1269.79 1161.15 Q1265.3 1161.15 1262.66 1164.2 Q1260.02 1167.23 1260.02 1172.42 L1260.02 1192.56 L1254.13 1192.56 L1254.13 1156.92 L1260.02 1156.92 L1260.02 1162.45 Q1262.02 1159.18 1264.82 1157.62 Q1267.62 1156.06 1271.47 1156.06 Q1275.36 1156.06 1278.06 1158.03 Q1280.8 1160 1282.11 1163.76 Z" fill="#000000" fill-rule="evenodd" fill-opacity="1" /><path clip-path="url(#clip890)" d="M1348.34 1173.28 L1348.34 1176.14 L1321.41 1176.14 Q1321.8 1182.19 1325.04 1185.37 Q1328.32 1188.52 1334.15 1188.52 Q1337.52 1188.52 1340.67 1187.69 Q1343.85 1186.87 1346.97 1185.21 L1346.97 1190.75 Q1343.82 1192.09 1340.51 1192.79 Q1337.2 1193.49 1333.79 1193.49 Q1325.26 1193.49 1320.27 1188.52 Q1315.3 1183.56 1315.3 1175.09 Q1315.3 1166.34 1320.01 1161.21 Q1324.76 1156.06 1332.78 1156.06 Q1339.97 1156.06 1344.14 1160.7 Q1348.34 1165.32 1348.34 1173.28 M1342.48 1171.56 Q1342.42 1166.75 1339.78 1163.89 Q1337.17 1161.02 1332.84 1161.02 Q1327.94 1161.02 1324.98 1163.79 Q1322.05 1166.56 1321.6 1171.59 L1342.48 1171.56 Z" fill="#000000" fill-rule="evenodd" fill-opacity="1" /><polyline clip-path="url(#clip892)" style="stroke:#000000; stroke-linecap:round; stroke-linejoin:round; stroke-width:2; stroke-opacity:0.1; fill:none" points="
  250.671,919.537 2289.76,919.537 
  "/>
<polyline clip-path="url(#clip892)" style="stroke:#000000; stroke-linecap:round; stroke-linejoin:round; stroke-width:2; stroke-opacity:0.1; fill:none" points="
  250.671,779.43 2289.76,779.43 
  "/>
<polyline clip-path="url(#clip892)" style="stroke:#000000; stroke-linecap:round; stroke-linejoin:round; stroke-width:2; stroke-opacity:0.1; fill:none" points="
  250.671,639.323 2289.76,639.323 
  "/>
<polyline clip-path="url(#clip892)" style="stroke:#000000; stroke-linecap:round; stroke-linejoin:round; stroke-width:2; stroke-opacity:0.1; fill:none" points="
  250.671,499.216 2289.76,499.216 
  "/>
<polyline clip-path="url(#clip892)" style="stroke:#000000; stroke-linecap:round; stroke-linejoin:round; stroke-width:2; stroke-opacity:0.1; fill:none" points="
  250.671,359.109 2289.76,359.109 
  "/>
<polyline clip-path="url(#clip892)" style="stroke:#000000; stroke-linecap:round; stroke-linejoin:round; stroke-width:2; stroke-opacity:0.1; fill:none" points="
  250.671,219.002 2289.76,219.002 
  "/>
<polyline clip-path="url(#clip890)" style="stroke:#000000; stroke-linecap:round; stroke-linejoin:round; stroke-width:4; stroke-opacity:1; fill:none" points="
  250.671,1047.7 250.671,108.352 
  "/>
<polyline clip-path="url(#clip890)" style="stroke:#000000; stroke-linecap:round; stroke-linejoin:round; stroke-width:4; stroke-opacity:1; fill:none" points="
  250.671,919.537 269.569,919.537 
  "/>
<polyline clip-path="url(#clip890)" style="stroke:#000000; stroke-linecap:round; stroke-linejoin:round; stroke-width:4; stroke-opacity:1; fill:none" points="
  250.671,779.43 269.569,779.43 
  "/>
<polyline clip-path="url(#clip890)" style="stroke:#000000; stroke-linecap:round; stroke-linejoin:round; stroke-width:4; stroke-opacity:1; fill:none" points="
  250.671,639.323 269.569,639.323 
  "/>
<polyline clip-path="url(#clip890)" style="stroke:#000000; stroke-linecap:round; stroke-linejoin:round; stroke-width:4; stroke-opacity:1; fill:none" points="
  250.671,499.216 269.569,499.216 
  "/>
<polyline clip-path="url(#clip890)" style="stroke:#000000; stroke-linecap:round; stroke-linejoin:round; stroke-width:4; stroke-opacity:1; fill:none" points="
  250.671,359.109 269.569,359.109 
  "/>
<polyline clip-path="url(#clip890)" style="stroke:#000000; stroke-linecap:round; stroke-linejoin:round; stroke-width:4; stroke-opacity:1; fill:none" points="
  250.671,219.002 269.569,219.002 
  "/>
<path clip-path="url(#clip890)" d="M133.537 936.099 L133.537 931.84 Q135.297 932.673 137.102 933.113 Q138.908 933.553 140.644 933.553 Q145.273 933.553 147.704 930.451 Q150.158 927.326 150.505 920.984 Q149.162 922.974 147.102 924.039 Q145.042 925.104 142.542 925.104 Q137.357 925.104 134.324 921.979 Q131.315 918.831 131.315 913.391 Q131.315 908.067 134.463 904.849 Q137.611 901.632 142.843 901.632 Q148.838 901.632 151.986 906.238 Q155.158 910.822 155.158 919.572 Q155.158 927.743 151.269 932.627 Q147.403 937.488 140.852 937.488 Q139.093 937.488 137.287 937.141 Q135.482 936.794 133.537 936.099 M142.843 921.447 Q145.991 921.447 147.82 919.294 Q149.672 917.141 149.672 913.391 Q149.672 909.664 147.82 907.512 Q145.991 905.336 142.843 905.336 Q139.695 905.336 137.843 907.512 Q136.014 909.664 136.014 913.391 Q136.014 917.141 137.843 919.294 Q139.695 921.447 142.843 921.447 Z" fill="#000000" fill-rule="evenodd" fill-opacity="1" /><path clip-path="url(#clip890)" d="M163.699 936.099 L163.699 931.84 Q165.459 932.673 167.264 933.113 Q169.07 933.553 170.806 933.553 Q175.435 933.553 177.866 930.451 Q180.32 927.326 180.667 920.984 Q179.324 922.974 177.264 924.039 Q175.204 925.104 172.704 925.104 Q167.519 925.104 164.486 921.979 Q161.477 918.831 161.477 913.391 Q161.477 908.067 164.625 904.849 Q167.773 901.632 173.005 901.632 Q179 901.632 182.148 906.238 Q185.32 910.822 185.32 919.572 Q185.32 927.743 181.431 932.627 Q177.565 937.488 171.014 937.488 Q169.255 937.488 167.449 937.141 Q165.644 936.794 163.699 936.099 M173.005 921.447 Q176.153 921.447 177.982 919.294 Q179.833 917.141 179.833 913.391 Q179.833 909.664 177.982 907.512 Q176.153 905.336 173.005 905.336 Q169.857 905.336 168.005 907.512 Q166.176 909.664 166.176 913.391 Q166.176 917.141 168.005 919.294 Q169.857 921.447 173.005 921.447 Z" fill="#000000" fill-rule="evenodd" fill-opacity="1" /><path clip-path="url(#clip890)" d="M193.769 902.257 L212.125 902.257 L212.125 906.192 L198.051 906.192 L198.051 914.664 Q199.069 914.317 200.088 914.155 Q201.106 913.97 202.125 913.97 Q207.912 913.97 211.292 917.141 Q214.671 920.312 214.671 925.729 Q214.671 931.308 211.199 934.41 Q207.727 937.488 201.407 937.488 Q199.231 937.488 196.963 937.118 Q194.718 936.747 192.31 936.007 L192.31 931.308 Q194.394 932.442 196.616 932.997 Q198.838 933.553 201.315 933.553 Q205.319 933.553 207.657 931.447 Q209.995 929.34 209.995 925.729 Q209.995 922.118 207.657 920.011 Q205.319 917.905 201.315 917.905 Q199.44 917.905 197.565 918.322 Q195.713 918.738 193.769 919.618 L193.769 902.257 Z" fill="#000000" fill-rule="evenodd" fill-opacity="1" /><path clip-path="url(#clip890)" d="M103.051 792.775 L110.69 792.775 L110.69 766.409 L102.38 768.076 L102.38 763.817 L110.644 762.15 L115.32 762.15 L115.32 792.775 L122.959 792.775 L122.959 796.71 L103.051 796.71 L103.051 792.775 Z" fill="#000000" fill-rule="evenodd" fill-opacity="1" /><path clip-path="url(#clip890)" d="M142.403 765.229 Q138.792 765.229 136.963 768.793 Q135.158 772.335 135.158 779.465 Q135.158 786.571 136.963 790.136 Q138.792 793.677 142.403 793.677 Q146.037 793.677 147.843 790.136 Q149.672 786.571 149.672 779.465 Q149.672 772.335 147.843 768.793 Q146.037 765.229 142.403 765.229 M142.403 761.525 Q148.213 761.525 151.269 766.131 Q154.347 770.715 154.347 779.465 Q154.347 788.191 151.269 792.798 Q148.213 797.381 142.403 797.381 Q136.593 797.381 133.514 792.798 Q130.459 788.191 130.459 779.465 Q130.459 770.715 133.514 766.131 Q136.593 761.525 142.403 761.525 Z" fill="#000000" fill-rule="evenodd" fill-opacity="1" /><path clip-path="url(#clip890)" d="M172.565 765.229 Q168.954 765.229 167.125 768.793 Q165.32 772.335 165.32 779.465 Q165.32 786.571 167.125 790.136 Q168.954 793.677 172.565 793.677 Q176.199 793.677 178.005 790.136 Q179.833 786.571 179.833 779.465 Q179.833 772.335 178.005 768.793 Q176.199 765.229 172.565 765.229 M172.565 761.525 Q178.375 761.525 181.431 766.131 Q184.509 770.715 184.509 779.465 Q184.509 788.191 181.431 792.798 Q178.375 797.381 172.565 797.381 Q166.755 797.381 163.676 792.798 Q160.621 788.191 160.621 779.465 Q160.621 770.715 163.676 766.131 Q166.755 761.525 172.565 761.525 Z" fill="#000000" fill-rule="evenodd" fill-opacity="1" /><path clip-path="url(#clip890)" d="M202.727 765.229 Q199.116 765.229 197.287 768.793 Q195.482 772.335 195.482 779.465 Q195.482 786.571 197.287 790.136 Q199.116 793.677 202.727 793.677 Q206.361 793.677 208.167 790.136 Q209.995 786.571 209.995 779.465 Q209.995 772.335 208.167 768.793 Q206.361 765.229 202.727 765.229 M202.727 761.525 Q208.537 761.525 211.593 766.131 Q214.671 770.715 214.671 779.465 Q214.671 788.191 211.593 792.798 Q208.537 797.381 202.727 797.381 Q196.917 797.381 193.838 792.798 Q190.782 788.191 190.782 779.465 Q190.782 770.715 193.838 766.131 Q196.917 761.525 202.727 761.525 Z" fill="#000000" fill-rule="evenodd" fill-opacity="1" /><path clip-path="url(#clip890)" d="M104.047 652.668 L111.686 652.668 L111.686 626.302 L103.376 627.969 L103.376 623.709 L111.639 622.043 L116.315 622.043 L116.315 652.668 L123.954 652.668 L123.954 656.603 L104.047 656.603 L104.047 652.668 Z" fill="#000000" fill-rule="evenodd" fill-opacity="1" /><path clip-path="url(#clip890)" d="M143.398 625.122 Q139.787 625.122 137.959 628.686 Q136.153 632.228 136.153 639.358 Q136.153 646.464 137.959 650.029 Q139.787 653.57 143.398 653.57 Q147.033 653.57 148.838 650.029 Q150.667 646.464 150.667 639.358 Q150.667 632.228 148.838 628.686 Q147.033 625.122 143.398 625.122 M143.398 621.418 Q149.209 621.418 152.264 626.024 Q155.343 630.608 155.343 639.358 Q155.343 648.084 152.264 652.691 Q149.209 657.274 143.398 657.274 Q137.588 657.274 134.51 652.691 Q131.454 648.084 131.454 639.358 Q131.454 630.608 134.51 626.024 Q137.588 621.418 143.398 621.418 Z" fill="#000000" fill-rule="evenodd" fill-opacity="1" /><path clip-path="url(#clip890)" d="M173.56 625.122 Q169.949 625.122 168.121 628.686 Q166.315 632.228 166.315 639.358 Q166.315 646.464 168.121 650.029 Q169.949 653.57 173.56 653.57 Q177.195 653.57 179 650.029 Q180.829 646.464 180.829 639.358 Q180.829 632.228 179 628.686 Q177.195 625.122 173.56 625.122 M173.56 621.418 Q179.37 621.418 182.426 626.024 Q185.505 630.608 185.505 639.358 Q185.505 648.084 182.426 652.691 Q179.37 657.274 173.56 657.274 Q167.75 657.274 164.671 652.691 Q161.616 648.084 161.616 639.358 Q161.616 630.608 164.671 626.024 Q167.75 621.418 173.56 621.418 Z" fill="#000000" fill-rule="evenodd" fill-opacity="1" /><path clip-path="url(#clip890)" d="M193.769 622.043 L212.125 622.043 L212.125 625.978 L198.051 625.978 L198.051 634.45 Q199.069 634.103 200.088 633.941 Q201.106 633.756 202.125 633.756 Q207.912 633.756 211.292 636.927 Q214.671 640.098 214.671 645.515 Q214.671 651.094 211.199 654.195 Q207.727 657.274 201.407 657.274 Q199.231 657.274 196.963 656.904 Q194.718 656.533 192.31 655.793 L192.31 651.094 Q194.394 652.228 196.616 652.783 Q198.838 653.339 201.315 653.339 Q205.319 653.339 207.657 651.232 Q209.995 649.126 209.995 645.515 Q209.995 641.904 207.657 639.797 Q205.319 637.691 201.315 637.691 Q199.44 637.691 197.565 638.108 Q195.713 638.524 193.769 639.404 L193.769 622.043 Z" fill="#000000" fill-rule="evenodd" fill-opacity="1" /><path clip-path="url(#clip890)" d="M103.051 512.561 L110.69 512.561 L110.69 486.195 L102.38 487.862 L102.38 483.602 L110.644 481.936 L115.32 481.936 L115.32 512.561 L122.959 512.561 L122.959 516.496 L103.051 516.496 L103.051 512.561 Z" fill="#000000" fill-rule="evenodd" fill-opacity="1" /><path clip-path="url(#clip890)" d="M142.403 485.014 Q138.792 485.014 136.963 488.579 Q135.158 492.121 135.158 499.25 Q135.158 506.357 136.963 509.922 Q138.792 513.463 142.403 513.463 Q146.037 513.463 147.843 509.922 Q149.672 506.357 149.672 499.25 Q149.672 492.121 147.843 488.579 Q146.037 485.014 142.403 485.014 M142.403 481.311 Q148.213 481.311 151.269 485.917 Q154.347 490.501 154.347 499.25 Q154.347 507.977 151.269 512.584 Q148.213 517.167 142.403 517.167 Q136.593 517.167 133.514 512.584 Q130.459 507.977 130.459 499.25 Q130.459 490.501 133.514 485.917 Q136.593 481.311 142.403 481.311 Z" fill="#000000" fill-rule="evenodd" fill-opacity="1" /><path clip-path="url(#clip890)" d="M163.375 512.561 L171.014 512.561 L171.014 486.195 L162.704 487.862 L162.704 483.602 L170.968 481.936 L175.644 481.936 L175.644 512.561 L183.283 512.561 L183.283 516.496 L163.375 516.496 L163.375 512.561 Z" fill="#000000" fill-rule="evenodd" fill-opacity="1" /><path clip-path="url(#clip890)" d="M202.727 485.014 Q199.116 485.014 197.287 488.579 Q195.482 492.121 195.482 499.25 Q195.482 506.357 197.287 509.922 Q199.116 513.463 202.727 513.463 Q206.361 513.463 208.167 509.922 Q209.995 506.357 209.995 499.25 Q209.995 492.121 208.167 488.579 Q206.361 485.014 202.727 485.014 M202.727 481.311 Q208.537 481.311 211.593 485.917 Q214.671 490.501 214.671 499.25 Q214.671 507.977 211.593 512.584 Q208.537 517.167 202.727 517.167 Q196.917 517.167 193.838 512.584 Q190.782 507.977 190.782 499.25 Q190.782 490.501 193.838 485.917 Q196.917 481.311 202.727 481.311 Z" fill="#000000" fill-rule="evenodd" fill-opacity="1" /><path clip-path="url(#clip890)" d="M104.047 372.454 L111.686 372.454 L111.686 346.088 L103.376 347.755 L103.376 343.495 L111.639 341.829 L116.315 341.829 L116.315 372.454 L123.954 372.454 L123.954 376.389 L104.047 376.389 L104.047 372.454 Z" fill="#000000" fill-rule="evenodd" fill-opacity="1" /><path clip-path="url(#clip890)" d="M143.398 344.907 Q139.787 344.907 137.959 348.472 Q136.153 352.014 136.153 359.143 Q136.153 366.25 137.959 369.815 Q139.787 373.356 143.398 373.356 Q147.033 373.356 148.838 369.815 Q150.667 366.25 150.667 359.143 Q150.667 352.014 148.838 348.472 Q147.033 344.907 143.398 344.907 M143.398 341.204 Q149.209 341.204 152.264 345.81 Q155.343 350.393 155.343 359.143 Q155.343 367.87 152.264 372.477 Q149.209 377.06 143.398 377.06 Q137.588 377.06 134.51 372.477 Q131.454 367.87 131.454 359.143 Q131.454 350.393 134.51 345.81 Q137.588 341.204 143.398 341.204 Z" fill="#000000" fill-rule="evenodd" fill-opacity="1" /><path clip-path="url(#clip890)" d="M164.371 372.454 L172.009 372.454 L172.009 346.088 L163.699 347.755 L163.699 343.495 L171.963 341.829 L176.639 341.829 L176.639 372.454 L184.278 372.454 L184.278 376.389 L164.371 376.389 L164.371 372.454 Z" fill="#000000" fill-rule="evenodd" fill-opacity="1" /><path clip-path="url(#clip890)" d="M193.769 341.829 L212.125 341.829 L212.125 345.764 L198.051 345.764 L198.051 354.236 Q199.069 353.889 200.088 353.727 Q201.106 353.542 202.125 353.542 Q207.912 353.542 211.292 356.713 Q214.671 359.884 214.671 365.301 Q214.671 370.879 211.199 373.981 Q207.727 377.06 201.407 377.06 Q199.231 377.06 196.963 376.69 Q194.718 376.319 192.31 375.579 L192.31 370.879 Q194.394 372.014 196.616 372.569 Q198.838 373.125 201.315 373.125 Q205.319 373.125 207.657 371.018 Q209.995 368.912 209.995 365.301 Q209.995 361.69 207.657 359.583 Q205.319 357.477 201.315 357.477 Q199.44 357.477 197.565 357.893 Q195.713 358.31 193.769 359.19 L193.769 341.829 Z" fill="#000000" fill-rule="evenodd" fill-opacity="1" /><path clip-path="url(#clip890)" d="M103.051 232.347 L110.69 232.347 L110.69 205.981 L102.38 207.648 L102.38 203.388 L110.644 201.722 L115.32 201.722 L115.32 232.347 L122.959 232.347 L122.959 236.282 L103.051 236.282 L103.051 232.347 Z" fill="#000000" fill-rule="evenodd" fill-opacity="1" /><path clip-path="url(#clip890)" d="M142.403 204.8 Q138.792 204.8 136.963 208.365 Q135.158 211.907 135.158 219.036 Q135.158 226.143 136.963 229.708 Q138.792 233.249 142.403 233.249 Q146.037 233.249 147.843 229.708 Q149.672 226.143 149.672 219.036 Q149.672 211.907 147.843 208.365 Q146.037 204.8 142.403 204.8 M142.403 201.097 Q148.213 201.097 151.269 205.703 Q154.347 210.286 154.347 219.036 Q154.347 227.763 151.269 232.37 Q148.213 236.953 142.403 236.953 Q136.593 236.953 133.514 232.37 Q130.459 227.763 130.459 219.036 Q130.459 210.286 133.514 205.703 Q136.593 201.097 142.403 201.097 Z" fill="#000000" fill-rule="evenodd" fill-opacity="1" /><path clip-path="url(#clip890)" d="M166.593 232.347 L182.912 232.347 L182.912 236.282 L160.968 236.282 L160.968 232.347 Q163.63 229.592 168.213 224.962 Q172.82 220.31 174 218.967 Q176.246 216.444 177.125 214.708 Q178.028 212.948 178.028 211.259 Q178.028 208.504 176.083 206.768 Q174.162 205.032 171.06 205.032 Q168.861 205.032 166.408 205.796 Q163.977 206.56 161.199 208.111 L161.199 203.388 Q164.023 202.254 166.477 201.675 Q168.931 201.097 170.968 201.097 Q176.338 201.097 179.533 203.782 Q182.727 206.467 182.727 210.958 Q182.727 213.087 181.917 215.009 Q181.13 216.907 179.023 219.499 Q178.445 220.171 175.343 223.388 Q172.241 226.583 166.593 232.347 Z" fill="#000000" fill-rule="evenodd" fill-opacity="1" /><path clip-path="url(#clip890)" d="M202.727 204.8 Q199.116 204.8 197.287 208.365 Q195.482 211.907 195.482 219.036 Q195.482 226.143 197.287 229.708 Q199.116 233.249 202.727 233.249 Q206.361 233.249 208.167 229.708 Q209.995 226.143 209.995 219.036 Q209.995 211.907 208.167 208.365 Q206.361 204.8 202.727 204.8 M202.727 201.097 Q208.537 201.097 211.593 205.703 Q214.671 210.286 214.671 219.036 Q214.671 227.763 211.593 232.37 Q208.537 236.953 202.727 236.953 Q196.917 236.953 193.838 232.37 Q190.782 227.763 190.782 219.036 Q190.782 210.286 193.838 205.703 Q196.917 201.097 202.727 201.097 Z" fill="#000000" fill-rule="evenodd" fill-opacity="1" /><path clip-path="url(#clip890)" d="M30.6081 601.07 L52.1242 601.07 L52.1242 606.926 L30.799 606.926 Q25.7383 606.926 23.2238 608.9 Q20.7094 610.873 20.7094 614.82 Q20.7094 619.562 23.7331 622.299 Q26.7568 625.037 31.9767 625.037 L52.1242 625.037 L52.1242 630.925 L2.59896 630.925 L2.59896 625.037 L22.0144 625.037 Q18.7997 622.936 17.2083 620.103 Q15.6168 617.239 15.6168 613.515 Q15.6168 607.372 19.4363 604.221 Q23.2238 601.07 30.6081 601.07 Z" fill="#000000" fill-rule="evenodd" fill-opacity="1" /><path clip-path="url(#clip890)" d="M9.88769 582.705 L27.7435 582.705 L27.7435 574.62 Q27.7435 570.133 25.42 567.682 Q23.0965 565.231 18.7997 565.231 Q14.5347 565.231 12.2112 567.682 Q9.88769 570.133 9.88769 574.62 L9.88769 582.705 M4.60416 589.134 L4.60416 574.62 Q4.60416 566.631 8.23261 562.557 Q11.8292 558.451 18.7997 558.451 Q25.8338 558.451 29.4304 562.557 Q33.027 566.631 33.027 574.62 L33.027 582.705 L52.1242 582.705 L52.1242 589.134 L4.60416 589.134 Z" fill="#000000" fill-rule="evenodd" fill-opacity="1" /><path clip-path="url(#clip890)" d="M34.2047 536.808 Q34.2047 543.906 35.8279 546.643 Q37.4512 549.38 41.3661 549.38 Q44.4853 549.38 46.3314 547.343 Q48.1456 545.274 48.1456 541.741 Q48.1456 536.872 44.7081 533.943 Q41.2388 530.983 35.5097 530.983 L34.2047 530.983 L34.2047 536.808 M31.7857 525.127 L52.1242 525.127 L52.1242 530.983 L46.7133 530.983 Q49.9598 532.989 51.5194 535.98 Q53.0472 538.972 53.0472 543.301 Q53.0472 548.776 49.9916 552.022 Q46.9043 555.237 41.7481 555.237 Q35.7325 555.237 32.6769 551.226 Q29.6214 547.184 29.6214 539.195 L29.6214 530.983 L29.0485 530.983 Q25.0062 530.983 22.8101 533.657 Q20.5821 536.299 20.5821 541.105 Q20.5821 544.16 21.3141 547.057 Q22.0462 549.953 23.5103 552.627 L18.0995 552.627 Q16.8581 549.412 16.2534 546.388 Q15.6168 543.365 15.6168 540.5 Q15.6168 532.766 19.6272 528.946 Q23.6376 525.127 31.7857 525.127 Z" fill="#000000" fill-rule="evenodd" fill-opacity="1" /><path clip-path="url(#clip890)" d="M692.903 12.096 L705.096 12.096 L720.53 53.2532 L736.045 12.096 L748.238 12.096 L748.238 72.576 L740.258 72.576 L740.258 19.4686 L724.662 60.9499 L716.439 60.9499 L700.843 19.4686 L700.843 72.576 L692.903 72.576 L692.903 12.096 Z" fill="#000000" fill-rule="evenodd" fill-opacity="1" /><path clip-path="url(#clip890)" d="M802.966 48.0275 L802.966 51.6733 L768.695 51.6733 Q769.181 59.3701 773.313 63.421 Q777.486 67.4314 784.899 67.4314 Q789.193 67.4314 793.203 66.3781 Q797.254 65.3249 801.224 63.2184 L801.224 70.267 Q797.214 71.9684 793.001 72.8596 Q788.788 73.7508 784.453 73.7508 Q773.597 73.7508 767.237 67.4314 Q760.918 61.1119 760.918 50.3365 Q760.918 39.1965 766.913 32.6746 Q772.949 26.1121 783.157 26.1121 Q792.312 26.1121 797.619 32.0264 Q802.966 37.9003 802.966 48.0275 M795.512 45.84 Q795.431 39.7232 792.069 36.0774 Q788.747 32.4315 783.238 32.4315 Q777 32.4315 773.232 35.9558 Q769.505 39.4801 768.938 45.8805 L795.512 45.84 Z" fill="#000000" fill-rule="evenodd" fill-opacity="1" /><path clip-path="url(#clip890)" d="M835.819 49.7694 Q826.785 49.7694 823.301 51.8354 Q819.818 53.9013 819.818 58.8839 Q819.818 62.8538 822.41 65.2034 Q825.043 67.5124 829.54 67.5124 Q835.738 67.5124 839.465 63.1374 Q843.232 58.7219 843.232 51.4303 L843.232 49.7694 L835.819 49.7694 M850.686 46.6907 L850.686 72.576 L843.232 72.576 L843.232 65.6895 Q840.68 69.8214 836.872 71.8063 Q833.064 73.7508 827.555 73.7508 Q820.587 73.7508 816.455 69.8619 Q812.364 65.9325 812.364 59.3701 Q812.364 51.7138 817.468 47.825 Q822.613 43.9361 832.781 43.9361 L843.232 43.9361 L843.232 43.2069 Q843.232 38.0623 839.829 35.2672 Q836.467 32.4315 830.35 32.4315 Q826.461 32.4315 822.775 33.3632 Q819.089 34.295 815.686 36.1584 L815.686 29.2718 Q819.777 27.692 823.626 26.9223 Q827.474 26.1121 831.12 26.1121 Q840.963 26.1121 845.825 31.2163 Q850.686 36.3204 850.686 46.6907 Z" fill="#000000" fill-rule="evenodd" fill-opacity="1" /><path clip-path="url(#clip890)" d="M903.752 45.1919 L903.752 72.576 L896.299 72.576 L896.299 45.4349 Q896.299 38.994 893.787 35.7938 Q891.276 32.5936 886.253 32.5936 Q880.217 32.5936 876.733 36.4419 Q873.249 40.2903 873.249 46.9338 L873.249 72.576 L865.755 72.576 L865.755 27.2059 L873.249 27.2059 L873.249 34.2544 Q875.923 30.163 879.528 28.1376 Q883.174 26.1121 887.913 26.1121 Q895.732 26.1121 899.742 30.9732 Q903.752 35.7938 903.752 45.1919 Z" fill="#000000" fill-rule="evenodd" fill-opacity="1" /><path clip-path="url(#clip890)" d="M952.201 65.7705 L952.201 89.8329 L944.707 89.8329 L944.707 27.2059 L952.201 27.2059 L952.201 34.0924 Q954.551 30.0415 958.116 28.0971 Q961.721 26.1121 966.704 26.1121 Q974.967 26.1121 980.112 32.6746 Q985.297 39.2371 985.297 49.9314 Q985.297 60.6258 980.112 67.1883 Q974.967 73.7508 966.704 73.7508 Q961.721 73.7508 958.116 71.8063 Q954.551 69.8214 952.201 65.7705 M977.56 49.9314 Q977.56 41.7081 974.157 37.0496 Q970.795 32.3505 964.881 32.3505 Q958.966 32.3505 955.564 37.0496 Q952.201 41.7081 952.201 49.9314 Q952.201 58.1548 955.564 62.8538 Q958.966 67.5124 964.881 67.5124 Q970.795 67.5124 974.157 62.8538 Q977.56 58.1548 977.56 49.9314 Z" fill="#000000" fill-rule="evenodd" fill-opacity="1" /><path clip-path="url(#clip890)" d="M1023.94 34.1734 Q1022.69 33.4443 1021.19 33.1202 Q1019.73 32.7556 1017.95 32.7556 Q1011.63 32.7556 1008.23 36.8875 Q1004.86 40.9789 1004.86 48.6757 L1004.86 72.576 L997.369 72.576 L997.369 27.2059 L1004.86 27.2059 L1004.86 34.2544 Q1007.21 30.1225 1010.98 28.1376 Q1014.75 26.1121 1020.13 26.1121 Q1020.9 26.1121 1021.84 26.2337 Q1022.77 26.3147 1023.9 26.5172 L1023.94 34.1734 Z" fill="#000000" fill-rule="evenodd" fill-opacity="1" /><path clip-path="url(#clip890)" d="M1068.75 48.0275 L1068.75 51.6733 L1034.48 51.6733 Q1034.96 59.3701 1039.09 63.421 Q1043.27 67.4314 1050.68 67.4314 Q1054.97 67.4314 1058.98 66.3781 Q1063.03 65.3249 1067 63.2184 L1067 70.267 Q1062.99 71.9684 1058.78 72.8596 Q1054.57 73.7508 1050.23 73.7508 Q1039.38 73.7508 1033.02 67.4314 Q1026.7 61.1119 1026.7 50.3365 Q1026.7 39.1965 1032.69 32.6746 Q1038.73 26.1121 1048.94 26.1121 Q1058.09 26.1121 1063.4 32.0264 Q1068.75 37.9003 1068.75 48.0275 M1061.29 45.84 Q1061.21 39.7232 1057.85 36.0774 Q1054.53 32.4315 1049.02 32.4315 Q1042.78 32.4315 1039.01 35.9558 Q1035.29 39.4801 1034.72 45.8805 L1061.29 45.84 Z" fill="#000000" fill-rule="evenodd" fill-opacity="1" /><path clip-path="url(#clip890)" d="M1109.9 28.5427 L1109.9 35.5912 Q1106.74 33.9709 1103.34 33.1607 Q1099.94 32.3505 1096.29 32.3505 Q1090.74 32.3505 1087.95 34.0519 Q1085.19 35.7533 1085.19 39.156 Q1085.19 41.7486 1087.18 43.2475 Q1089.16 44.7058 1095.16 46.0426 L1097.71 46.6097 Q1105.65 48.3111 1108.97 51.4303 Q1112.33 54.509 1112.33 60.0587 Q1112.33 66.3781 1107.31 70.0644 Q1102.33 73.7508 1093.58 73.7508 Q1089.93 73.7508 1085.96 73.0216 Q1082.03 72.3329 1077.66 70.9151 L1077.66 63.2184 Q1081.79 65.3654 1085.8 66.4591 Q1089.81 67.5124 1093.74 67.5124 Q1099.01 67.5124 1101.84 65.73 Q1104.68 63.9071 1104.68 60.6258 Q1104.68 57.5877 1102.61 55.9673 Q1100.59 54.3469 1093.66 52.8481 L1091.07 52.2405 Q1084.14 50.7821 1081.06 47.7845 Q1077.98 44.7463 1077.98 39.4801 Q1077.98 33.0797 1082.52 29.5959 Q1087.06 26.1121 1095.4 26.1121 Q1099.53 26.1121 1103.18 26.7198 Q1106.82 27.3274 1109.9 28.5427 Z" fill="#000000" fill-rule="evenodd" fill-opacity="1" /><path clip-path="url(#clip890)" d="M1153.13 28.5427 L1153.13 35.5912 Q1149.97 33.9709 1146.56 33.1607 Q1143.16 32.3505 1139.52 32.3505 Q1133.97 32.3505 1131.17 34.0519 Q1128.42 35.7533 1128.42 39.156 Q1128.42 41.7486 1130.4 43.2475 Q1132.39 44.7058 1138.38 46.0426 L1140.93 46.6097 Q1148.87 48.3111 1152.19 51.4303 Q1155.56 54.509 1155.56 60.0587 Q1155.56 66.3781 1150.53 70.0644 Q1145.55 73.7508 1136.8 73.7508 Q1133.16 73.7508 1129.19 73.0216 Q1125.26 72.3329 1120.88 70.9151 L1120.88 63.2184 Q1125.01 65.3654 1129.02 66.4591 Q1133.03 67.5124 1136.96 67.5124 Q1142.23 67.5124 1145.06 65.73 Q1147.9 63.9071 1147.9 60.6258 Q1147.9 57.5877 1145.83 55.9673 Q1143.81 54.3469 1136.88 52.8481 L1134.29 52.2405 Q1127.36 50.7821 1124.28 47.7845 Q1121.2 44.7463 1121.2 39.4801 Q1121.2 33.0797 1125.74 29.5959 Q1130.28 26.1121 1138.62 26.1121 Q1142.76 26.1121 1146.4 26.7198 Q1150.05 27.3274 1153.13 28.5427 Z" fill="#000000" fill-rule="evenodd" fill-opacity="1" /><path clip-path="url(#clip890)" d="M1166.66 54.671 L1166.66 27.2059 L1174.11 27.2059 L1174.11 54.3874 Q1174.11 60.8284 1176.62 64.0691 Q1179.13 67.2693 1184.16 67.2693 Q1190.19 67.2693 1193.68 63.421 Q1197.2 59.5726 1197.2 52.9291 L1197.2 27.2059 L1204.65 27.2059 L1204.65 72.576 L1197.2 72.576 L1197.2 65.6084 Q1194.49 69.7404 1190.88 71.7658 Q1187.32 73.7508 1182.58 73.7508 Q1174.76 73.7508 1170.71 68.8897 Q1166.66 64.0286 1166.66 54.671 M1185.41 26.1121 L1185.41 26.1121 Z" fill="#000000" fill-rule="evenodd" fill-opacity="1" /><path clip-path="url(#clip890)" d="M1246.3 34.1734 Q1245.04 33.4443 1243.54 33.1202 Q1242.08 32.7556 1240.3 32.7556 Q1233.98 32.7556 1230.58 36.8875 Q1227.22 40.9789 1227.22 48.6757 L1227.22 72.576 L1219.72 72.576 L1219.72 27.2059 L1227.22 27.2059 L1227.22 34.2544 Q1229.57 30.1225 1233.33 28.1376 Q1237.1 26.1121 1242.49 26.1121 Q1243.26 26.1121 1244.19 26.2337 Q1245.12 26.3147 1246.26 26.5172 L1246.3 34.1734 Z" fill="#000000" fill-rule="evenodd" fill-opacity="1" /><path clip-path="url(#clip890)" d="M1291.1 48.0275 L1291.1 51.6733 L1256.83 51.6733 Q1257.32 59.3701 1261.45 63.421 Q1265.62 67.4314 1273.03 67.4314 Q1277.33 67.4314 1281.34 66.3781 Q1285.39 65.3249 1289.36 63.2184 L1289.36 70.267 Q1285.35 71.9684 1281.13 72.8596 Q1276.92 73.7508 1272.59 73.7508 Q1261.73 73.7508 1255.37 67.4314 Q1249.05 61.1119 1249.05 50.3365 Q1249.05 39.1965 1255.05 32.6746 Q1261.08 26.1121 1271.29 26.1121 Q1280.45 26.1121 1285.75 32.0264 Q1291.1 37.9003 1291.1 48.0275 M1283.65 45.84 Q1283.57 39.7232 1280.2 36.0774 Q1276.88 32.4315 1271.37 32.4315 Q1265.13 32.4315 1261.37 35.9558 Q1257.64 39.4801 1257.07 45.8805 L1283.65 45.84 Z" fill="#000000" fill-rule="evenodd" fill-opacity="1" /><path clip-path="url(#clip890)" d="M1305.24 62.2867 L1313.78 62.2867 L1313.78 69.2543 L1307.14 82.2172 L1301.92 82.2172 L1305.24 69.2543 L1305.24 62.2867 Z" fill="#000000" fill-rule="evenodd" fill-opacity="1" /><path clip-path="url(#clip890)" d="M1388.65 49.9314 Q1388.65 41.7081 1385.24 37.0496 Q1381.88 32.3505 1375.97 32.3505 Q1370.05 32.3505 1366.65 37.0496 Q1363.29 41.7081 1363.29 49.9314 Q1363.29 58.1548 1366.65 62.8538 Q1370.05 67.5124 1375.97 67.5124 Q1381.88 67.5124 1385.24 62.8538 Q1388.65 58.1548 1388.65 49.9314 M1363.29 34.0924 Q1365.64 30.0415 1369.2 28.0971 Q1372.81 26.1121 1377.79 26.1121 Q1386.05 26.1121 1391.2 32.6746 Q1396.38 39.2371 1396.38 49.9314 Q1396.38 60.6258 1391.2 67.1883 Q1386.05 73.7508 1377.79 73.7508 Q1372.81 73.7508 1369.2 71.8063 Q1365.64 69.8214 1363.29 65.7705 L1363.29 72.576 L1355.79 72.576 L1355.79 9.54393 L1363.29 9.54393 L1363.29 34.0924 Z" fill="#000000" fill-rule="evenodd" fill-opacity="1" /><path clip-path="url(#clip890)" d="M1447.55 48.0275 L1447.55 51.6733 L1413.28 51.6733 Q1413.76 59.3701 1417.89 63.421 Q1422.07 67.4314 1429.48 67.4314 Q1433.77 67.4314 1437.78 66.3781 Q1441.83 65.3249 1445.8 63.2184 L1445.8 70.267 Q1441.79 71.9684 1437.58 72.8596 Q1433.37 73.7508 1429.03 73.7508 Q1418.18 73.7508 1411.82 67.4314 Q1405.5 61.1119 1405.5 50.3365 Q1405.5 39.1965 1411.49 32.6746 Q1417.53 26.1121 1427.74 26.1121 Q1436.89 26.1121 1442.2 32.0264 Q1447.55 37.9003 1447.55 48.0275 M1440.09 45.84 Q1440.01 39.7232 1436.65 36.0774 Q1433.33 32.4315 1427.82 32.4315 Q1421.58 32.4315 1417.81 35.9558 Q1414.09 39.4801 1413.52 45.8805 L1440.09 45.84 Z" fill="#000000" fill-rule="evenodd" fill-opacity="1" /><path clip-path="url(#clip890)" d="M1482.75 9.54393 L1482.75 15.7418 L1475.62 15.7418 Q1471.61 15.7418 1470.03 17.3622 Q1468.49 18.9825 1468.49 23.1955 L1468.49 27.2059 L1480.76 27.2059 L1480.76 32.9987 L1468.49 32.9987 L1468.49 72.576 L1460.99 72.576 L1460.99 32.9987 L1453.87 32.9987 L1453.87 27.2059 L1460.99 27.2059 L1460.99 24.0462 Q1460.99 16.471 1464.52 13.0277 Q1468.04 9.54393 1475.7 9.54393 L1482.75 9.54393 Z" fill="#000000" fill-rule="evenodd" fill-opacity="1" /><path clip-path="url(#clip890)" d="M1506.57 32.4315 Q1500.57 32.4315 1497.09 37.1306 Q1493.6 41.7891 1493.6 49.9314 Q1493.6 58.0738 1497.05 62.7728 Q1500.53 67.4314 1506.57 67.4314 Q1512.52 67.4314 1516.01 62.7323 Q1519.49 58.0333 1519.49 49.9314 Q1519.49 41.8701 1516.01 37.1711 Q1512.52 32.4315 1506.57 32.4315 M1506.57 26.1121 Q1516.29 26.1121 1521.84 32.4315 Q1527.39 38.7509 1527.39 49.9314 Q1527.39 61.0714 1521.84 67.4314 Q1516.29 73.7508 1506.57 73.7508 Q1496.8 73.7508 1491.26 67.4314 Q1485.75 61.0714 1485.75 49.9314 Q1485.75 38.7509 1491.26 32.4315 Q1496.8 26.1121 1506.57 26.1121 Z" fill="#000000" fill-rule="evenodd" fill-opacity="1" /><path clip-path="url(#clip890)" d="M1566.03 34.1734 Q1564.78 33.4443 1563.28 33.1202 Q1561.82 32.7556 1560.04 32.7556 Q1553.72 32.7556 1550.32 36.8875 Q1546.96 40.9789 1546.96 48.6757 L1546.96 72.576 L1539.46 72.576 L1539.46 27.2059 L1546.96 27.2059 L1546.96 34.2544 Q1549.3 30.1225 1553.07 28.1376 Q1556.84 26.1121 1562.23 26.1121 Q1563 26.1121 1563.93 26.2337 Q1564.86 26.3147 1565.99 26.5172 L1566.03 34.1734 Z" fill="#000000" fill-rule="evenodd" fill-opacity="1" /><path clip-path="url(#clip890)" d="M1610.84 48.0275 L1610.84 51.6733 L1576.57 51.6733 Q1577.05 59.3701 1581.19 63.421 Q1585.36 67.4314 1592.77 67.4314 Q1597.06 67.4314 1601.08 66.3781 Q1605.13 65.3249 1609.1 63.2184 L1609.1 70.267 Q1605.09 71.9684 1600.87 72.8596 Q1596.66 73.7508 1592.33 73.7508 Q1581.47 73.7508 1575.11 67.4314 Q1568.79 61.1119 1568.79 50.3365 Q1568.79 39.1965 1574.78 32.6746 Q1580.82 26.1121 1591.03 26.1121 Q1600.18 26.1121 1605.49 32.0264 Q1610.84 37.9003 1610.84 48.0275 M1603.38 45.84 Q1603.3 39.7232 1599.94 36.0774 Q1596.62 32.4315 1591.11 32.4315 Q1584.87 32.4315 1581.1 35.9558 Q1577.38 39.4801 1576.81 45.8805 L1603.38 45.84 Z" fill="#000000" fill-rule="evenodd" fill-opacity="1" /><path clip-path="url(#clip890)" d="M1657.54 65.6895 L1686.1 65.6895 L1686.1 72.576 L1647.7 72.576 L1647.7 65.6895 Q1652.36 60.8689 1660.38 52.7671 Q1668.44 44.6248 1670.51 42.2752 Q1674.44 37.8598 1675.98 34.8216 Q1677.56 31.7429 1677.56 28.7857 Q1677.56 23.9651 1674.15 20.927 Q1670.79 17.8888 1665.36 17.8888 Q1661.51 17.8888 1657.22 19.2256 Q1652.97 20.5624 1648.11 23.2765 L1648.11 15.0127 Q1653.05 13.0277 1657.34 12.015 Q1661.64 11.0023 1665.2 11.0023 Q1674.6 11.0023 1680.19 15.7013 Q1685.78 20.4004 1685.78 28.2591 Q1685.78 31.9859 1684.36 35.3482 Q1682.98 38.6699 1679.3 43.2069 Q1678.29 44.3817 1672.86 50.0125 Q1667.43 55.6027 1657.54 65.6895 Z" fill="#000000" fill-rule="evenodd" fill-opacity="1" /><path clip-path="url(#clip890)" d="M1720.78 17.4837 Q1714.46 17.4837 1711.26 23.7221 Q1708.1 29.92 1708.1 42.3968 Q1708.1 54.833 1711.26 61.0714 Q1714.46 67.2693 1720.78 67.2693 Q1727.14 67.2693 1730.3 61.0714 Q1733.5 54.833 1733.5 42.3968 Q1733.5 29.92 1730.3 23.7221 Q1727.14 17.4837 1720.78 17.4837 M1720.78 11.0023 Q1730.95 11.0023 1736.29 19.0636 Q1741.68 27.0843 1741.68 42.3968 Q1741.68 57.6687 1736.29 65.73 Q1730.95 73.7508 1720.78 73.7508 Q1710.61 73.7508 1705.22 65.73 Q1699.88 57.6687 1699.88 42.3968 Q1699.88 27.0843 1705.22 19.0636 Q1710.61 11.0023 1720.78 11.0023 Z" fill="#000000" fill-rule="evenodd" fill-opacity="1" /><path clip-path="url(#clip890)" d="M1757.48 65.6895 L1770.85 65.6895 L1770.85 19.5497 L1756.31 22.4663 L1756.31 15.0127 L1770.77 12.096 L1778.95 12.096 L1778.95 65.6895 L1792.32 65.6895 L1792.32 72.576 L1757.48 72.576 L1757.48 65.6895 Z" fill="#000000" fill-rule="evenodd" fill-opacity="1" /><path clip-path="url(#clip890)" d="M1827.36 39.075 Q1821.85 39.075 1818.61 42.8424 Q1815.41 46.6097 1815.41 53.1722 Q1815.41 59.6941 1818.61 63.502 Q1821.85 67.2693 1827.36 67.2693 Q1832.87 67.2693 1836.07 63.502 Q1839.31 59.6941 1839.31 53.1722 Q1839.31 46.6097 1836.07 42.8424 Q1832.87 39.075 1827.36 39.075 M1843.6 13.4328 L1843.6 20.8865 Q1840.52 19.4281 1837.36 18.6585 Q1834.25 17.8888 1831.17 17.8888 Q1823.06 17.8888 1818.77 23.3575 Q1814.52 28.8262 1813.91 39.8852 Q1816.3 36.3609 1819.9 34.4975 Q1823.51 32.5936 1827.84 32.5936 Q1836.96 32.5936 1842.23 38.1433 Q1847.53 43.6525 1847.53 53.1722 Q1847.53 62.4892 1842.02 68.12 Q1836.51 73.7508 1827.36 73.7508 Q1816.87 73.7508 1811.32 65.73 Q1805.77 57.6687 1805.77 42.3968 Q1805.77 28.0566 1812.57 19.5497 Q1819.38 11.0023 1830.84 11.0023 Q1833.92 11.0023 1837.04 11.6099 Q1840.2 12.2175 1843.6 13.4328 Z" fill="#000000" fill-rule="evenodd" fill-opacity="1" /><polyline clip-path="url(#clip892)" style="stroke:#c271d2; stroke-linecap:round; stroke-linejoin:round; stroke-width:4; stroke-opacity:1; fill:none" points="
  308.381,340.428 310.14,280.649 311.898,256.364 313.657,298.396 315.415,317.077 317.173,275.044 318.932,219.002 320.69,255.029 322.448,303.066 324.207,340.428 
  325.965,327.084 327.724,343.096 329.482,405.811 331.24,354.438 332.999,335.09 334.757,312.406 336.516,335.758 338.274,373.119 340.032,172.299 341.791,210.996 
  343.549,190.98 345.307,168.563 347.066,204.991 348.824,204.991 350.583,197.986 352.341,228.342 354.099,271.041 355.858,279.715 357.616,313.574 359.375,279.048 
  361.133,263.836 362.891,331.087 364.65,299.063 366.408,351.103 368.166,371.118 369.925,320.579 371.683,256.364 373.442,258.232 375.2,299.063 376.958,307.069 
  378.717,299.563 380.475,317.077 382.234,289.055 383.992,331.087 385.75,382.46 387.509,452.513 389.267,555.259 391.025,424.492 392.784,325.483 394.542,339.093 
  396.301,303.066 398.059,347.1 399.817,331.087 401.576,303.066 403.334,251.026 405.093,268.039 406.851,355.106 408.609,353.504 410.368,291.057 412.126,321.747 
  413.884,324.082 415.643,326.417 417.401,336.692 419.16,320.579 420.918,339.093 422.676,351.103 424.435,363.779 426.193,519.231 427.952,555.259 429.71,466.524 
  431.468,457.184 433.227,527.237 434.985,410.481 436.743,326.417 438.502,326.417 440.26,359.109 442.019,515.228 443.777,471.194 445.535,513.226 447.294,545.918 
  449.052,600.793 450.811,565.767 452.569,492.21 454.327,481.702 456.086,531.24 457.844,527.237 459.602,511.225 461.361,506.221 463.119,537.745 464.878,538.446 
  466.636,541.248 468.394,513.226 470.153,527.237 471.911,560.863 473.669,583.28 475.428,607.298 477.186,639.323 478.945,611.301 480.703,629.982 482.461,591.286 
  484.22,600.093 485.978,567.268 487.737,544.05 489.495,583.28 491.253,670.847 493.012,779.43 494.77,717.783 496.528,699.369 498.287,707.375 500.045,684.858 
  501.804,587.95 503.562,499.216 505.32,502.718 507.079,539.246 508.837,563.265 510.596,544.751 512.354,583.28 514.112,627.314 515.871,642.825 517.629,643.326 
  519.387,700.036 521.146,745.804 522.904,795.442 524.663,807.451 526.421,761.916 528.179,733.895 529.938,723.387 531.696,746.738 533.455,755.412 535.213,775.427 
  536.971,782.933 538.73,675.35 540.488,679.353 542.246,735.396 544.005,783.433 545.763,821.462 547.522,770.089 549.28,807.451 551.038,788.77 552.797,824.264 
  554.555,816.792 556.314,817.959 558.072,858.824 559.83,879.506 561.589,831.47 563.347,829.868 565.105,803.448 566.864,774.76 568.622,795.442 570.381,790.638 
  572.139,815.457 573.897,814.457 575.656,751.408 577.414,790.638 579.173,783.433 580.931,835.473 582.689,855.488 584.448,835.473 586.206,863.494 587.964,914.867 
  589.723,916.034 591.481,779.43 593.24,835.473 594.998,816.792 596.756,851.485 598.515,839.476 600.273,879.506 602.032,926.542 603.79,880.307 605.548,807.451 
  607.307,858.824 609.065,910.196 610.823,885.911 612.582,900.856 614.34,883.509 616.099,802.781 617.857,807.451 619.615,871.5 621.374,891.516 623.132,912.532 
  624.891,858.824 626.649,879.506 628.407,891.516 630.166,847.482 631.924,863.494 633.682,841.077 635.441,763.418 637.199,774.76 638.958,849.483 640.716,868.164 
  642.474,898.521 644.233,854.154 645.991,779.43 647.75,810.954 649.508,852.986 651.266,824.965 653.025,807.451 654.783,835.473 656.541,919.537 658.3,910.196 
  660.058,802.781 661.817,880.307 663.575,868.164 665.333,835.473 667.092,859.491 668.85,914.867 670.609,907.528 672.367,855.488 674.125,831.47 675.884,859.491 
  677.642,877.505 679.4,872.835 681.159,835.473 682.917,795.442 684.676,756.079 686.434,968.574 688.192,751.408 689.951,718.717 691.709,726.89 693.468,765.419 
  695.226,751.408 696.984,770.089 698.743,746.738 700.501,751.408 702.259,800.446 704.018,784.1 705.776,731.393 707.535,757.013 709.293,795.442 711.051,774.76 
  712.81,765.419 714.568,807.451 716.327,799.445 718.085,746.738 719.843,739.399 721.602,770.089 723.36,814.457 725.118,839.476 726.877,783.433 728.635,675.35 
  730.394,688.36 732.152,681.355 733.91,688.36 735.669,689.761 737.427,675.35 739.185,737.398 740.944,718.717 742.702,737.398 744.461,683.356 746.219,662.674 
  747.977,576.275 749.736,583.28 751.494,629.982 753.253,623.311 755.011,550.588 756.769,579.277 758.528,672.014 760.286,740.9 762.044,714.047 763.803,698.868 
  765.561,691.363 767.32,728.991 769.078,695.366 770.836,695.366 772.595,732.728 774.353,751.408 776.112,702.371 777.87,627.314 779.628,594.489 781.387,621.809 
  783.145,629.982 784.903,671.347 786.662,647.329 788.42,563.265 790.179,499.216 791.937,538.446 793.695,569.269 795.454,663.842 797.212,632.317 798.971,531.24 
  800.729,504.82 802.487,489.875 804.246,475.197 806.004,483.204 807.762,547.252 809.521,564.599 811.279,583.28 813.038,523.234 814.796,527.237 816.554,487.207 
  818.313,485.205 820.071,455.182 821.83,480.535 823.588,502.718 825.346,471.194 827.105,397.638 828.863,407.145 830.621,471.194 832.38,465.59 834.138,481.702 
  835.897,499.216 837.655,467.191 839.413,419.155 841.172,419.822 842.93,407.145 844.689,373.119 846.447,331.087 848.205,289.055 849.964,289.055 851.722,335.09 
  853.48,340.428 855.239,341.595 856.997,311.072 858.756,331.087 860.514,403.142 862.272,391.133 864.031,380.125 865.789,352.103 867.548,317.077 869.306,275.044 
  871.064,283.051 872.823,306.569 874.581,345.098 876.339,422.157 878.098,411.649 879.856,338.093 881.615,371.118 883.373,373.119 885.131,418.654 886.89,450.178 
  888.648,366.114 890.407,282.05 892.165,306.569 893.923,334.59 895.682,327.084 897.44,334.59 899.198,310.071 900.957,303.066 902.715,351.103 904.474,387.13 
  906.232,380.125 907.99,387.13 909.749,401.141 911.507,394.135 913.266,383.627 915.024,429.162 916.782,443.173 918.541,427.161 920.299,355.606 922.057,341.595 
  923.816,380.125 925.574,425.66 927.333,418.654 929.091,331.087 930.849,303.066 932.608,264.536 934.366,204.991 936.125,180.472 937.883,201.488 939.641,240.018 
  941.4,257.531 943.158,240.018 944.916,261.034 946.675,271.542 948.433,204.991 950.192,190.98 951.95,211.996 953.708,282.05 955.467,324.082 957.225,373.119 
  958.984,285.553 960.742,282.05 962.5,278.547 964.259,303.066 966.017,313.574 967.775,229.51 969.534,197.986 971.292,236.515 973.051,303.066 974.809,226.007 
  976.567,231.011 978.326,285.553 980.084,211.996 981.843,134.937 983.601,180.472 985.359,202.989 987.118,222.504 988.876,211.996 990.634,240.018 992.393,226.007 
  994.151,243.52 995.91,254.028 997.668,310.071 999.426,257.531 1001.18,236.515 1002.94,240.018 1004.7,226.007 1006.46,306.569 1008.22,383.627 1009.98,471.194 
  1011.74,457.184 1013.49,474.697 1015.25,520.232 1017.01,460.686 1018.77,443.173 1020.53,429.162 1022.29,401.141 1024.04,401.141 1025.8,397.638 1027.56,446.676 
  1029.32,418.654 1031.08,331.087 1032.84,282.05 1034.59,292.558 1036.35,313.574 1038.11,366.114 1039.87,380.125 1041.63,292.558 1043.39,236.515 1045.14,257.531 
  1046.9,296.061 1048.66,380.125 1050.42,411.649 1052.18,411.649 1053.94,351.103 1055.69,299.563 1057.45,324.082 1059.21,317.077 1060.97,327.585 1062.73,320.579 
  1064.49,299.563 1066.24,303.066 1068,373.119 1069.76,376.622 1071.52,395.136 1073.28,324.082 1075.04,324.082 1076.8,359.109 1078.55,320.579 1080.31,348.601 
  1082.07,464.189 1083.83,419.155 1085.59,408.146 1087.35,478.2 1089.1,579.777 1090.86,583.28 1092.62,481.702 1094.38,453.681 1096.14,485.205 1097.9,481.702 
  1099.65,450.178 1101.41,467.191 1103.17,464.189 1104.93,502.718 1106.69,548.253 1108.45,607.799 1110.2,618.307 1111.96,488.708 1113.72,503.219 1115.48,530.74 
  1117.24,569.269 1119,509.724 1120.75,488.708 1122.51,492.21 1124.27,474.697 1126.03,539.246 1127.79,579.777 1129.55,509.724 1131.31,481.702 1133.06,523.735 
  1134.82,548.253 1136.58,583.28 1138.34,453.681 1140.1,460.686 1141.86,485.205 1143.61,499.216 1145.37,450.178 1147.13,527.237 1148.89,614.804 1150.65,607.799 
  1152.41,600.793 1154.16,579.777 1155.92,621.809 1157.68,670.847 1159.44,674.35 1161.2,737.398 1162.96,726.89 1164.71,677.852 1166.47,695.366 1168.23,618.307 
  1169.99,587.283 1171.75,660.339 1173.51,705.874 1175.26,767.421 1177.02,758.414 1178.78,667.344 1180.54,642.825 1182.3,544.751 1184.06,597.291 1185.82,660.339 
  1187.57,681.355 1189.33,583.28 1191.09,572.772 1192.85,593.788 1194.61,593.788 1196.37,719.884 1198.12,793.441 1199.88,779.43 1201.64,663.842 1203.4,625.312 
  1205.16,579.777 1206.92,646.328 1208.67,744.403 1210.43,796.943 1212.19,791.439 1213.95,789.938 1215.71,688.36 1217.47,688.36 1219.22,779.43 1220.98,831.97 
  1222.74,888.013 1224.5,923.04 1226.26,947.558 1228.02,972.077 1229.77,972.077 1231.53,926.542 1233.29,902.024 1235.05,863.494 1236.81,845.981 1238.57,852.986 
  1240.32,859.991 1242.08,902.024 1243.84,944.056 1245.6,940.553 1247.36,968.574 1249.12,1021.11 1250.88,951.061 1252.63,881.007 1254.39,884.51 1256.15,905.526 
  1257.91,845.981 1259.67,751.408 1261.43,733.895 1263.18,796.943 1264.94,842.478 1266.7,849.483 1268.46,754.911 1270.22,747.906 1271.98,827.467 1273.73,813.678 
  1275.49,759.65 1277.25,765.419 1279.01,828.467 1280.77,866.997 1282.53,877.505 1284.28,866.997 1286.04,888.013 1287.8,891.516 1289.56,835.473 1291.32,859.991 
  1293.08,891.516 1294.83,856.489 1296.59,888.013 1298.35,923.04 1300.11,916.034 1301.87,870.499 1303.63,891.516 1305.39,863.494 1307.14,842.478 1308.9,815.457 
  1310.66,758.414 1312.42,726.89 1314.18,726.89 1315.94,796.943 1317.69,800.446 1319.45,791.439 1321.21,789.938 1322.97,835.473 1324.73,859.991 1326.49,909.029 
  1328.24,888.013 1330,849.483 1331.76,866.997 1333.52,863.494 1335.28,824.965 1337.04,733.277 1338.79,719.009 1340.55,782.933 1342.31,814.457 1344.07,828.467 
  1345.83,852.986 1347.59,810.954 1349.34,709.376 1351.1,688.36 1352.86,628.815 1354.62,643.326 1356.38,712.879 1358.14,744.403 1359.9,699.369 1361.65,688.36 
  1363.41,698.868 1365.17,712.879 1366.93,740.9 1368.69,747.906 1370.45,674.35 1372.2,681.355 1373.96,705.874 1375.72,744.403 1377.48,747.906 1379.24,726.89 
  1381,739.399 1382.75,768.922 1384.51,775.427 1386.27,712.879 1388.03,688.36 1389.79,691.863 1391.55,712.879 1393.3,688.36 1395.06,623.311 1396.82,635.82 
  1398.58,667.344 1400.34,660.339 1402.1,660.339 1403.85,716.382 1405.61,719.884 1407.37,670.847 1409.13,681.355 1410.89,698.868 1412.65,677.852 1414.4,653.334 
  1416.16,659.338 1417.92,604.296 1419.68,562.264 1421.44,551.756 1423.2,520.232 1424.96,509.724 1426.71,523.735 1428.47,509.724 1430.23,487.207 1431.99,523.735 
  1433.75,555.259 1435.51,541.248 1437.26,488.708 1439.02,495.713 1440.78,544.751 1442.54,502.718 1444.3,495.713 1446.06,534.243 1447.81,548.253 1449.57,544.751 
  1451.33,502.718 1453.09,474.697 1454.85,404.644 1456.61,387.13 1458.36,397.638 1460.12,418.654 1461.88,425.66 1463.64,411.649 1465.4,369.617 1467.16,373.119 
  1468.91,422.157 1470.67,450.178 1472.43,432.665 1474.19,362.611 1475.95,394.135 1477.71,443.173 1479.47,439.67 1481.22,373.119 1482.98,397.638 1484.74,383.627 
  1486.5,373.119 1488.26,401.141 1490.02,439.67 1491.77,432.665 1493.53,453.681 1495.29,418.654 1497.05,369.617 1498.81,355.606 1500.57,387.13 1502.32,366.114 
  1504.08,334.59 1505.84,317.077 1507.6,320.579 1509.36,362.611 1511.12,348.601 1512.87,327.585 1514.63,278.547 1516.39,317.077 1518.15,404.644 1519.91,422.157 
  1521.67,460.686 1523.42,369.617 1525.18,331.087 1526.94,362.611 1528.7,502.718 1530.46,450.178 1532.22,429.162 1533.98,432.665 1535.73,387.13 1537.49,394.135 
  1539.25,422.157 1541.01,583.28 1542.77,488.708 1544.53,299.563 1546.28,320.579 1548.04,366.114 1549.8,359.109 1551.56,307.069 1553.32,485.205 1555.08,453.681 
  1556.83,376.622 1558.59,327.585 1560.35,373.119 1562.11,327.585 1563.87,292.558 1565.63,211.996 1567.38,180.472 1569.14,159.456 1570.9,254.028 1572.66,275.044 
  1574.42,299.563 1576.18,278.547 1577.93,183.975 1579.69,215.499 1581.45,282.05 1583.21,257.531 1584.97,226.007 1586.73,296.061 1588.49,369.617 1590.24,306.569 
  1592,289.055 1593.76,278.547 1595.52,292.558 1597.28,229.51 1599.04,331.087 1600.79,345.098 1602.55,313.574 1604.31,243.52 1606.07,215.499 1607.83,250.526 
  1609.59,243.52 1611.34,233.012 1613.1,299.563 1614.86,289.055 1616.62,236.515 1618.38,240.018 1620.14,240.018 1621.89,254.028 1623.65,250.526 1625.41,219.002 
  1627.17,190.98 1628.93,201.488 1630.69,219.002 1632.44,197.986 1634.2,208.494 1635.96,222.504 1637.72,237.683 1639.48,268.039 1641.24,226.007 1642.99,208.494 
  1644.75,278.547 1646.51,282.05 1648.27,289.055 1650.03,204.991 1651.79,162.959 1653.55,240.018 1655.3,247.023 1657.06,303.066 1658.82,292.558 1660.58,226.007 
  1662.34,226.007 1664.1,299.563 1665.85,327.585 1667.61,425.66 1669.37,509.724 1671.13,425.66 1672.89,397.638 1674.65,447.176 1676.4,450.178 1678.16,443.173 
  1679.92,390.633 1681.68,383.627 1683.44,404.644 1685.2,380.125 1686.95,481.702 1688.71,541.248 1690.47,502.718 1692.23,415.152 1693.99,415.152 1695.75,467.692 
  1697.5,429.162 1699.26,394.135 1701.02,387.13 1702.78,338.093 1704.54,320.579 1706.3,395.136 1708.06,348.601 1709.81,190.98 1711.57,243.52 1713.33,271.542 
  1715.09,303.066 1716.85,366.114 1718.61,355.606 1720.36,345.098 1722.12,292.558 1723.88,334.59 1725.64,401.141 1727.4,362.611 1729.16,362.611 1730.91,362.611 
  1732.67,443.173 1734.43,499.216 1736.19,492.21 1737.95,447.176 1739.71,415.152 1741.46,443.173 1743.22,509.724 1744.98,537.745 1746.74,488.708 1748.5,495.213 
  1750.26,569.269 1752.01,649.831 1753.77,646.328 1755.53,632.317 1757.29,562.264 1759.05,562.264 1760.81,492.21 1762.57,443.173 1764.32,485.205 1766.08,541.248 
  1767.84,544.751 1769.6,432.665 1771.36,394.135 1773.12,422.157 1774.87,418.654 1776.63,390.633 1778.39,579.777 1780.15,712.879 1781.91,670.847 1783.67,618.307 
  1785.42,621.809 1787.18,691.863 1788.94,667.344 1790.7,656.836 1792.46,614.804 1794.22,555.259 1795.97,590.285 1797.73,653.334 1799.49,639.323 1801.25,667.344 
  1803.01,614.804 1804.77,604.296 1806.52,593.788 1808.28,593.788 1810.04,670.847 1811.8,726.89 1813.56,679.353 1815.32,688.36 1817.07,733.895 1818.83,740.9 
  1820.59,677.852 1822.35,642.825 1824.11,607.799 1825.87,576.275 1827.63,597.291 1829.38,688.36 1831.14,747.906 1832.9,779.43 1834.66,719.884 1836.42,723.387 
  1838.18,768.922 1839.93,831.97 1841.69,888.013 1843.45,852.986 1845.21,866.997 1846.97,737.398 1848.73,744.403 1850.48,761.916 1852.24,733.895 1854,670.847 
  1855.76,730.392 1857.52,688.36 1859.28,681.355 1861.03,649.831 1862.79,667.344 1864.55,681.355 1866.31,740.9 1868.07,800.446 1869.83,810.954 1871.58,810.954 
  1873.34,789.938 1875.1,779.43 1876.86,821.462 1878.62,811.454 1880.38,771.424 1882.14,791.439 1883.89,803.448 1885.65,835.473 1887.41,845.981 1889.17,884.51 
  1890.93,838.975 1892.69,831.97 1894.44,902.024 1896.2,919.537 1897.96,909.029 1899.72,926.542 1901.48,912.532 1903.24,859.991 1904.99,771.424 1906.75,677.852 
  1908.51,705.874 1910.27,726.89 1912.03,747.906 1913.79,789.938 1915.54,849.483 1917.3,907.528 1919.06,838.975 1920.82,831.97 1922.58,817.959 1924.34,817.959 
  1926.09,814.457 1927.85,798.111 1929.61,817.959 1931.37,761.916 1933.13,839.476 1934.89,954.564 1936.65,926.542 1938.4,856.489 1940.16,835.473 1941.92,845.981 
  1943.68,803.949 1945.44,779.43 1947.2,747.906 1948.95,730.392 1950.71,751.408 1952.47,819.46 1954.23,810.954 1955.99,771.424 1957.75,775.927 1959.5,835.473 
  1961.26,810.954 1963.02,786.435 1964.78,702.371 1966.54,677.852 1968.3,726.89 1970.05,777.428 1971.81,771.549 1973.57,835.473 1975.33,779.43 1977.09,723.387 
  1978.85,772.425 1980.6,779.43 1982.36,695.366 1984.12,691.863 1985.88,726.89 1987.64,723.387 1989.4,702.371 1991.15,698.868 1992.91,740.9 1994.67,707.375 
  1996.43,712.879 1998.19,740.9 1999.95,723.387 2001.71,754.911 2003.46,755.412 2005.22,730.392 2006.98,751.408 2008.74,747.906 2010.5,723.387 2012.26,716.382 
  2014.01,740.9 2015.77,740.9 2017.53,728.057 2019.29,755.412 2021.05,730.392 2022.81,625.312 2024.56,558.761 2026.32,579.777 2028.08,604.296 2029.84,618.307 
  2031.6,625.312 2033.36,621.809 2035.11,590.285 2036.87,604.296 2038.63,611.301 2040.39,614.804 2042.15,677.852 2043.91,688.36 2045.66,677.852 2047.42,656.836 
  2049.18,635.82 2050.94,677.852 2052.7,699.369 2054.46,709.376 2056.22,709.376 2057.97,600.793 2059.73,649.831 2061.49,674.35 2063.25,632.317 2065.01,583.28 
  2066.77,527.237 2068.52,483.204 2070.28,460.686 2072.04,443.173 2073.8,478.2 2075.56,535.243 2077.32,551.756 2079.07,520.232 2080.83,527.237 2082.59,523.735 
  2084.35,569.269 2086.11,660.339 2087.87,639.323 2089.62,535.243 2091.38,499.216 2093.14,471.194 2094.9,408.146 2096.66,401.141 2098.42,401.141 2100.17,436.168 
  2101.93,411.649 2103.69,451.179 2105.45,503.219 2107.21,446.676 2108.97,436.168 2110.73,446.676 2112.48,453.681 2114.24,422.157 2116,362.611 2117.76,390.633 
  2119.52,334.59 2121.28,306.569 2123.03,320.579 2124.79,327.585 2126.55,324.082 2128.31,334.59 2130.07,380.125 2131.83,436.168 2133.58,432.665 2135.34,422.157 
  2137.1,369.617 2138.86,334.59 2140.62,359.109 2142.38,401.141 2144.13,376.622 2145.89,348.601 2147.65,362.611 2149.41,443.173 2151.17,443.173 2152.93,425.66 
  2154.68,401.141 2156.44,320.579 2158.2,289.055 2159.96,327.585 2161.72,345.098 2163.48,355.606 2165.24,334.59 2166.99,331.087 2168.75,366.114 2170.51,422.157 
  2172.27,464.189 2174.03,348.601 2175.79,275.044 2177.54,310.071 2179.3,366.114 2181.06,327.585 2182.82,331.087 2184.58,359.109 2186.34,334.59 2188.09,317.077 
  2189.85,296.061 2191.61,339.093 2193.37,352.103 2195.13,450.178 2196.89,460.686 2198.64,380.125 2200.4,317.077 2202.16,303.066 2203.92,317.077 2205.68,320.579 
  2207.44,306.569 2209.19,257.531 2210.95,247.023 2212.71,261.034 2214.47,250.526 2216.23,194.483 2217.99,201.488 2219.74,183.975 2221.5,162.959 2223.26,187.478 
  2225.02,201.488 2226.78,194.483 2228.54,271.542 2230.3,289.055 2232.05,204.991 
  "/>
</svg>
